<?xml version="1.0" encoding="UTF-8"?>
<svg xmlns="http://www.w3.org/2000/svg"
     xmlns:xlink="http://www.w3.org/1999/xlink"
     xmlns:gadfly="http://www.gadflyjl.org/ns"
     version="1.2"
     width="160mm" height="90mm" viewBox="0 0 160 90"
     stroke="none"
     fill="#000000"
     stroke-width="0.3"
     font-size="3.88"
>
<defs>
  <marker id="arrow" markerWidth="15" markerHeight="7" refX="5" refY="3.5" orient="auto" markerUnits="strokeWidth">
    <path d="M0,0 L15,3.5 L0,7 z" stroke="context-stroke" fill="context-stroke"/>
  </marker>
</defs>
<g stroke="#000000" stroke-opacity="0.000" fill="#FFFFFF" id="img-7c88ef06-1">
  <g transform="translate(80,45)">
    <path d="M-80,-45 L80,-45 80,45 -80,45  z" class="primitive"/>
  </g>
</g>
<g class="plotroot yscalable" id="img-7c88ef06-2">
  <g font-size="3.88" font-family="'PT Sans','Helvetica Neue','Helvetica',sans-serif" fill="#564A55" stroke="#000000" stroke-opacity="0.000" id="img-7c88ef06-3">
    <g transform="translate(80.87,78.39)">
      <g class="primitive">
        <text text-anchor="middle" dy="0.6em">Months</text>
      </g>
    </g>
  </g>
  <g class="guide xlabels" font-size="2.82" font-family="'PT Sans Caption','Helvetica Neue','Helvetica',sans-serif" fill="#6C606B" id="img-7c88ef06-4">
    <g transform="translate(19.07,71.72)">
      <g class="primitive">
        <text text-anchor="middle" dy="0.6em"></text>
      </g>
    </g>
    <g transform="translate(28.58,71.72)">
      <g class="primitive">
        <text text-anchor="middle" dy="0.6em">Jan</text>
      </g>
    </g>
    <g transform="translate(38.09,71.72)">
      <g class="primitive">
        <text text-anchor="middle" dy="0.6em">Feb</text>
      </g>
    </g>
    <g transform="translate(47.59,71.72)">
      <g class="primitive">
        <text text-anchor="middle" dy="0.6em">Mar</text>
      </g>
    </g>
    <g transform="translate(57.1,71.72)">
      <g class="primitive">
        <text text-anchor="middle" dy="0.6em">Apr</text>
      </g>
    </g>
    <g transform="translate(66.61,71.72)">
      <g class="primitive">
        <text text-anchor="middle" dy="0.6em">May</text>
      </g>
    </g>
    <g transform="translate(76.11,71.72)">
      <g class="primitive">
        <text text-anchor="middle" dy="0.6em">Jun</text>
      </g>
    </g>
    <g transform="translate(85.62,71.72)">
      <g class="primitive">
        <text text-anchor="middle" dy="0.6em">Jul</text>
      </g>
    </g>
    <g transform="translate(95.13,71.72)">
      <g class="primitive">
        <text text-anchor="middle" dy="0.6em">Aug</text>
      </g>
    </g>
    <g transform="translate(104.63,71.72)">
      <g class="primitive">
        <text text-anchor="middle" dy="0.6em">Sep</text>
      </g>
    </g>
    <g transform="translate(114.14,71.72)">
      <g class="primitive">
        <text text-anchor="middle" dy="0.6em">Oct</text>
      </g>
    </g>
    <g transform="translate(123.65,71.72)">
      <g class="primitive">
        <text text-anchor="middle" dy="0.6em">Nov</text>
      </g>
    </g>
    <g transform="translate(133.15,71.72)">
      <g class="primitive">
        <text text-anchor="middle" dy="0.6em">Dec</text>
      </g>
    </g>
    <g transform="translate(142.66,71.72)">
      <g class="primitive">
        <text text-anchor="middle" dy="0.6em"></text>
      </g>
    </g>
  </g>
  <g class="guide colorkey" id="img-7c88ef06-5">
    <g fill="#4C404B" font-size="2.82" font-family="'PT Sans','Helvetica Neue','Helvetica',sans-serif" id="img-7c88ef06-6">
      <g transform="translate(146.48,22.53)" id="img-7c88ef06-7" class="color_Jan">
        <g class="primitive">
          <text dy="0.35em">Jan</text>
        </g>
      </g>
      <g transform="translate(146.48,26.16)" id="img-7c88ef06-8" class="color_Feb">
        <g class="primitive">
          <text dy="0.35em">Feb</text>
        </g>
      </g>
      <g transform="translate(146.48,29.78)" id="img-7c88ef06-9" class="color_Mar">
        <g class="primitive">
          <text dy="0.35em">Mar</text>
        </g>
      </g>
      <g transform="translate(146.48,33.41)" id="img-7c88ef06-10" class="color_Apr">
        <g class="primitive">
          <text dy="0.35em">Apr</text>
        </g>
      </g>
      <g transform="translate(146.48,37.04)" id="img-7c88ef06-11" class="color_May">
        <g class="primitive">
          <text dy="0.35em">May</text>
        </g>
      </g>
      <g transform="translate(146.48,40.66)" id="img-7c88ef06-12" class="color_Jun">
        <g class="primitive">
          <text dy="0.35em">Jun</text>
        </g>
      </g>
      <g transform="translate(146.48,44.29)" id="img-7c88ef06-13" class="color_Jul">
        <g class="primitive">
          <text dy="0.35em">Jul</text>
        </g>
      </g>
      <g transform="translate(146.48,47.92)" id="img-7c88ef06-14" class="color_Aug">
        <g class="primitive">
          <text dy="0.35em">Aug</text>
        </g>
      </g>
      <g transform="translate(146.48,51.54)" id="img-7c88ef06-15" class="color_Sep">
        <g class="primitive">
          <text dy="0.35em">Sep</text>
        </g>
      </g>
      <g transform="translate(146.48,55.17)" id="img-7c88ef06-16" class="color_Oct">
        <g class="primitive">
          <text dy="0.35em">Oct</text>
        </g>
      </g>
      <g transform="translate(146.48,58.8)" id="img-7c88ef06-17" class="color_Nov">
        <g class="primitive">
          <text dy="0.35em">Nov</text>
        </g>
      </g>
      <g transform="translate(146.48,62.42)" id="img-7c88ef06-18" class="color_Dec">
        <g class="primitive">
          <text dy="0.35em">Dec</text>
        </g>
      </g>
    </g>
    <g fill-opacity="1" id="img-7c88ef06-19">
      <g transform="translate(144.57,22.53)" id="img-7c88ef06-20" stroke="#FFFFFF" class="color_Jan" fill="#00BFFF">
        <path d="M-0.91,-0.91 L0.91,-0.91 0.91,0.91 -0.91,0.91  z" class="primitive"/>
      </g>
      <g transform="translate(144.57,26.16)" id="img-7c88ef06-21" stroke="#FFFFFF" class="color_Feb" fill="#D4CA3A">
        <path d="M-0.91,-0.91 L0.91,-0.91 0.91,0.91 -0.91,0.91  z" class="primitive"/>
      </g>
      <g transform="translate(144.57,29.78)" id="img-7c88ef06-22" stroke="#FFFFFF" class="color_Mar" fill="#FF6DAE">
        <path d="M-0.91,-0.91 L0.91,-0.91 0.91,0.91 -0.91,0.91  z" class="primitive"/>
      </g>
      <g transform="translate(144.57,33.41)" id="img-7c88ef06-23" stroke="#FFFFFF" class="color_Apr" fill="#00B78D">
        <path d="M-0.91,-0.91 L0.91,-0.91 0.91,0.91 -0.91,0.91  z" class="primitive"/>
      </g>
      <g transform="translate(144.57,37.04)" id="img-7c88ef06-24" stroke="#FFFFFF" class="color_May" fill="#BEA9FF">
        <path d="M-0.91,-0.91 L0.91,-0.91 0.91,0.91 -0.91,0.91  z" class="primitive"/>
      </g>
      <g transform="translate(144.57,40.66)" id="img-7c88ef06-25" stroke="#FFFFFF" class="color_Jun" fill="#FF6765">
        <path d="M-0.91,-0.91 L0.91,-0.91 0.91,0.91 -0.91,0.91  z" class="primitive"/>
      </g>
      <g transform="translate(144.57,44.29)" id="img-7c88ef06-26" stroke="#FFFFFF" class="color_Jul" fill="#C6C6C6">
        <path d="M-0.91,-0.91 L0.91,-0.91 0.91,0.91 -0.91,0.91  z" class="primitive"/>
      </g>
      <g transform="translate(144.57,47.92)" id="img-7c88ef06-27" stroke="#FFFFFF" class="color_Aug" fill="#63DF75">
        <path d="M-0.91,-0.91 L0.91,-0.91 0.91,0.91 -0.91,0.91  z" class="primitive"/>
      </g>
      <g transform="translate(144.57,51.54)" id="img-7c88ef06-28" stroke="#FFFFFF" class="color_Sep" fill="#00E6D3">
        <path d="M-0.91,-0.91 L0.91,-0.91 0.91,0.91 -0.91,0.91  z" class="primitive"/>
      </g>
      <g transform="translate(144.57,55.17)" id="img-7c88ef06-29" stroke="#FFFFFF" class="color_Oct" fill="#E870DD">
        <path d="M-0.91,-0.91 L0.91,-0.91 0.91,0.91 -0.91,0.91  z" class="primitive"/>
      </g>
      <g transform="translate(144.57,58.8)" id="img-7c88ef06-30" stroke="#FFFFFF" class="color_Nov" fill="#93A649">
        <path d="M-0.91,-0.91 L0.91,-0.91 0.91,0.91 -0.91,0.91  z" class="primitive"/>
      </g>
      <g transform="translate(144.57,62.42)" id="img-7c88ef06-31" stroke="#FFFFFF" class="color_Dec" fill="#FF9A4B">
        <path d="M-0.91,-0.91 L0.91,-0.91 0.91,0.91 -0.91,0.91  z" class="primitive"/>
      </g>
    </g>
    <g fill="#362A35" font-size="3.88" font-family="'PT Sans','Helvetica Neue','Helvetica',sans-serif" stroke="#000000" stroke-opacity="0.000" id="img-7c88ef06-32">
      <g transform="translate(143.66,18.71)" id="img-7c88ef06-33">
        <g class="primitive">
          <text dy="-0em">Months</text>
        </g>
      </g>
    </g>
  </g>
  <g clip-path="url(#img-7c88ef06-34)">
    <g id="img-7c88ef06-35">
      <g pointer-events="visible" stroke-width="0.3" fill="#000000" fill-opacity="0.000" stroke="#000000" stroke-opacity="0.000" class="guide background" id="img-7c88ef06-36">
        <g transform="translate(80.87,40.66)" id="img-7c88ef06-37">
          <path d="M-61.8,-30.05 L61.8,-30.05 61.8,30.05 -61.8,30.05  z" class="primitive"/>
        </g>
      </g>
      <g class="guide ygridlines xfixed" stroke-dasharray="0.5,0.5" stroke-width="0.2" stroke="#D0D0E0" id="img-7c88ef06-38">
        <g transform="translate(80.87,68.72)" id="img-7c88ef06-39">
          <path fill="none" d="M-61.8,0 L61.8,0 " class="primitive"/>
        </g>
        <g transform="translate(80.87,54.69)" id="img-7c88ef06-40">
          <path fill="none" d="M-61.8,0 L61.8,0 " class="primitive"/>
        </g>
        <g transform="translate(80.87,40.66)" id="img-7c88ef06-41">
          <path fill="none" d="M-61.8,0 L61.8,0 " class="primitive"/>
        </g>
        <g transform="translate(80.87,26.64)" id="img-7c88ef06-42">
          <path fill="none" d="M-61.8,0 L61.8,0 " class="primitive"/>
        </g>
        <g transform="translate(80.87,12.61)" id="img-7c88ef06-43">
          <path fill="none" d="M-61.8,0 L61.8,0 " class="primitive"/>
        </g>
      </g>
      <g class="guide xgridlines yfixed" stroke-dasharray="0.5,0.5" stroke-width="0.2" stroke="#D0D0E0" id="img-7c88ef06-44">
        <g transform="translate(19.07,40.66)" id="img-7c88ef06-45">
          <path fill="none" d="M0,-30.05 L0,30.05 " class="primitive"/>
        </g>
        <g transform="translate(28.58,40.66)" id="img-7c88ef06-46">
          <path fill="none" d="M0,-30.05 L0,30.05 " class="primitive"/>
        </g>
        <g transform="translate(38.09,40.66)" id="img-7c88ef06-47">
          <path fill="none" d="M0,-30.05 L0,30.05 " class="primitive"/>
        </g>
        <g transform="translate(47.59,40.66)" id="img-7c88ef06-48">
          <path fill="none" d="M0,-30.05 L0,30.05 " class="primitive"/>
        </g>
        <g transform="translate(57.1,40.66)" id="img-7c88ef06-49">
          <path fill="none" d="M0,-30.05 L0,30.05 " class="primitive"/>
        </g>
        <g transform="translate(66.61,40.66)" id="img-7c88ef06-50">
          <path fill="none" d="M0,-30.05 L0,30.05 " class="primitive"/>
        </g>
        <g transform="translate(76.11,40.66)" id="img-7c88ef06-51">
          <path fill="none" d="M0,-30.05 L0,30.05 " class="primitive"/>
        </g>
        <g transform="translate(85.62,40.66)" id="img-7c88ef06-52">
          <path fill="none" d="M0,-30.05 L0,30.05 " class="primitive"/>
        </g>
        <g transform="translate(95.13,40.66)" id="img-7c88ef06-53">
          <path fill="none" d="M0,-30.05 L0,30.05 " class="primitive"/>
        </g>
        <g transform="translate(104.63,40.66)" id="img-7c88ef06-54">
          <path fill="none" d="M0,-30.05 L0,30.05 " class="primitive"/>
        </g>
        <g transform="translate(114.14,40.66)" id="img-7c88ef06-55">
          <path fill="none" d="M0,-30.05 L0,30.05 " class="primitive"/>
        </g>
        <g transform="translate(123.65,40.66)" id="img-7c88ef06-56">
          <path fill="none" d="M0,-30.05 L0,30.05 " class="primitive"/>
        </g>
        <g transform="translate(133.15,40.66)" id="img-7c88ef06-57">
          <path fill="none" d="M0,-30.05 L0,30.05 " class="primitive"/>
        </g>
        <g transform="translate(142.66,40.66)" id="img-7c88ef06-58">
          <path fill="none" d="M0,-30.05 L0,30.05 " class="primitive"/>
        </g>
      </g>
      <g class="plotpanel" id="img-7c88ef06-59">
        <metadata>
          <boundingbox value="19.071666666666687mm 10.611666666666672mm 123.59mm 60.10333333333333mm"/>
          <unitbox value="0.0 42.85188045867744 13.0 -85.70376091735488"/>
        </metadata>
        <g class="geometry" stroke-width="0.3" id="img-7c88ef06-60">
          <g transform="translate(66.61,31.06)" id="img-7c88ef06-61" stroke="#BEA9FF" fill="#BEA9FF">
            <path d="M-4.25,-2.03 L4.25,-2.03 4.25,2.03 -4.25,2.03  z" class="primitive"/>
          </g>
          <g transform="translate(76.11,27.97)" id="img-7c88ef06-62" stroke="#FF6765" fill="#FF6765">
            <path d="M-4.25,-1.26 L4.25,-1.26 4.25,1.26 -4.25,1.26  z" class="primitive"/>
          </g>
          <g transform="translate(57.1,38.24)" id="img-7c88ef06-63" stroke="#00B78D" fill="#00B78D">
            <path d="M-4.25,-1.94 L4.25,-1.94 4.25,1.94 -4.25,1.94  z" class="primitive"/>
          </g>
          <g transform="translate(114.14,34.11)" id="img-7c88ef06-64" stroke="#E870DD" fill="#E870DD">
            <path d="M-4.25,-2.56 L4.25,-2.56 4.25,2.56 -4.25,2.56  z" class="primitive"/>
          </g>
          <g transform="translate(47.59,40.28)" id="img-7c88ef06-65" stroke="#FF6DAE" fill="#FF6DAE">
            <path d="M-4.25,-1.37 L4.25,-1.37 4.25,1.37 -4.25,1.37  z" class="primitive"/>
          </g>
          <g transform="translate(123.65,38.49)" id="img-7c88ef06-66" stroke="#93A649" fill="#93A649">
            <path d="M-4.25,-1.61 L4.25,-1.61 4.25,1.61 -4.25,1.61  z" class="primitive"/>
          </g>
          <g transform="translate(95.13,24.6)" id="img-7c88ef06-67" stroke="#63DF75" fill="#63DF75">
            <path d="M-4.25,-0.98 L4.25,-0.98 4.25,0.98 -4.25,0.98  z" class="primitive"/>
          </g>
          <g transform="translate(85.62,24.6)" id="img-7c88ef06-68" stroke="#C6C6C6" fill="#C6C6C6">
            <path d="M-4.25,-1.05 L4.25,-1.05 4.25,1.05 -4.25,1.05  z" class="primitive"/>
          </g>
          <g transform="translate(28.58,43.29)" id="img-7c88ef06-69" stroke="#00BFFF" fill="#00BFFF">
            <path d="M-4.25,-3.61 L4.25,-3.61 4.25,3.61 -4.25,3.61  z" class="primitive"/>
          </g>
          <g transform="translate(133.15,39.86)" id="img-7c88ef06-70" stroke="#FF9A4B" fill="#FF9A4B">
            <path d="M-4.25,-1.23 L4.25,-1.23 4.25,1.23 -4.25,1.23  z" class="primitive"/>
          </g>
          <g transform="translate(104.63,27.13)" id="img-7c88ef06-71" stroke="#00E6D3" fill="#00E6D3">
            <path d="M-4.25,-2.17 L4.25,-2.17 4.25,2.17 -4.25,2.17  z" class="primitive"/>
          </g>
          <g transform="translate(38.09,41.43)" id="img-7c88ef06-72" stroke="#D4CA3A" fill="#D4CA3A">
            <path d="M-4.25,-2.67 L4.25,-2.67 4.25,2.67 -4.25,2.67  z" class="primitive"/>
          </g>
          <g class="marker" id="img-7c88ef06-73">
            <g transform="translate(66.61,22.57)" id="img-7c88ef06-74" stroke="#FFFFFF" fill="#BEA9FF">
              <circle cx="0" cy="0" r="0.9" class="primitive"/>
            </g>
            <g transform="translate(66.61,22.5)" id="img-7c88ef06-75" stroke="#FFFFFF" fill="#BEA9FF">
              <circle cx="0" cy="0" r="0.9" class="primitive"/>
            </g>
            <g transform="translate(66.61,22.43)" id="img-7c88ef06-76" stroke="#FFFFFF" fill="#BEA9FF">
              <circle cx="0" cy="0" r="0.9" class="primitive"/>
            </g>
            <g transform="translate(66.61,22.22)" id="img-7c88ef06-77" stroke="#FFFFFF" fill="#BEA9FF">
              <circle cx="0" cy="0" r="0.9" class="primitive"/>
            </g>
            <g transform="translate(66.61,22.15)" id="img-7c88ef06-78" stroke="#FFFFFF" fill="#BEA9FF">
              <circle cx="0" cy="0" r="0.9" class="primitive"/>
            </g>
            <g transform="translate(66.61,21.87)" id="img-7c88ef06-79" stroke="#FFFFFF" fill="#BEA9FF">
              <circle cx="0" cy="0" r="0.9" class="primitive"/>
            </g>
            <g transform="translate(66.61,21.31)" id="img-7c88ef06-80" stroke="#FFFFFF" fill="#BEA9FF">
              <circle cx="0" cy="0" r="0.9" class="primitive"/>
            </g>
            <g transform="translate(76.11,22.85)" id="img-7c88ef06-81" stroke="#FFFFFF" fill="#FF6765">
              <circle cx="0" cy="0" r="0.9" class="primitive"/>
            </g>
            <g transform="translate(76.11,22.78)" id="img-7c88ef06-82" stroke="#FFFFFF" fill="#FF6765">
              <circle cx="0" cy="0" r="0.9" class="primitive"/>
            </g>
            <g transform="translate(76.11,22.71)" id="img-7c88ef06-83" stroke="#FFFFFF" fill="#FF6765">
              <circle cx="0" cy="0" r="0.9" class="primitive"/>
            </g>
            <g transform="translate(76.11,22.64)" id="img-7c88ef06-84" stroke="#FFFFFF" fill="#FF6765">
              <circle cx="0" cy="0" r="0.9" class="primitive"/>
            </g>
            <g transform="translate(76.11,22.57)" id="img-7c88ef06-85" stroke="#FFFFFF" fill="#FF6765">
              <circle cx="0" cy="0" r="0.9" class="primitive"/>
            </g>
            <g transform="translate(76.11,22.57)" id="img-7c88ef06-86" stroke="#FFFFFF" fill="#FF6765">
              <circle cx="0" cy="0" r="0.9" class="primitive"/>
            </g>
            <g transform="translate(76.11,22.57)" id="img-7c88ef06-87" stroke="#FFFFFF" fill="#FF6765">
              <circle cx="0" cy="0" r="0.9" class="primitive"/>
            </g>
            <g transform="translate(76.11,22.43)" id="img-7c88ef06-88" stroke="#FFFFFF" fill="#FF6765">
              <circle cx="0" cy="0" r="0.9" class="primitive"/>
            </g>
            <g transform="translate(76.11,22.29)" id="img-7c88ef06-89" stroke="#FFFFFF" fill="#FF6765">
              <circle cx="0" cy="0" r="0.9" class="primitive"/>
            </g>
            <g transform="translate(76.11,22.22)" id="img-7c88ef06-90" stroke="#FFFFFF" fill="#FF6765">
              <circle cx="0" cy="0" r="0.9" class="primitive"/>
            </g>
            <g transform="translate(76.11,22.08)" id="img-7c88ef06-91" stroke="#FFFFFF" fill="#FF6765">
              <circle cx="0" cy="0" r="0.9" class="primitive"/>
            </g>
            <g transform="translate(76.11,22.01)" id="img-7c88ef06-92" stroke="#FFFFFF" fill="#FF6765">
              <circle cx="0" cy="0" r="0.9" class="primitive"/>
            </g>
            <g transform="translate(76.11,21.94)" id="img-7c88ef06-93" stroke="#FFFFFF" fill="#FF6765">
              <circle cx="0" cy="0" r="0.9" class="primitive"/>
            </g>
            <g transform="translate(76.11,21.94)" id="img-7c88ef06-94" stroke="#FFFFFF" fill="#FF6765">
              <circle cx="0" cy="0" r="0.9" class="primitive"/>
            </g>
            <g transform="translate(76.11,21.8)" id="img-7c88ef06-95" stroke="#FFFFFF" fill="#FF6765">
              <circle cx="0" cy="0" r="0.9" class="primitive"/>
            </g>
            <g transform="translate(76.11,21.8)" id="img-7c88ef06-96" stroke="#FFFFFF" fill="#FF6765">
              <circle cx="0" cy="0" r="0.9" class="primitive"/>
            </g>
            <g transform="translate(76.11,21.73)" id="img-7c88ef06-97" stroke="#FFFFFF" fill="#FF6765">
              <circle cx="0" cy="0" r="0.9" class="primitive"/>
            </g>
            <g transform="translate(76.11,21.73)" id="img-7c88ef06-98" stroke="#FFFFFF" fill="#FF6765">
              <circle cx="0" cy="0" r="0.9" class="primitive"/>
            </g>
            <g transform="translate(76.11,21.66)" id="img-7c88ef06-99" stroke="#FFFFFF" fill="#FF6765">
              <circle cx="0" cy="0" r="0.9" class="primitive"/>
            </g>
            <g transform="translate(76.11,21.31)" id="img-7c88ef06-100" stroke="#FFFFFF" fill="#FF6765">
              <circle cx="0" cy="0" r="0.9" class="primitive"/>
            </g>
            <g transform="translate(76.11,21.24)" id="img-7c88ef06-101" stroke="#FFFFFF" fill="#FF6765">
              <circle cx="0" cy="0" r="0.9" class="primitive"/>
            </g>
            <g transform="translate(76.11,21.17)" id="img-7c88ef06-102" stroke="#FFFFFF" fill="#FF6765">
              <circle cx="0" cy="0" r="0.9" class="primitive"/>
            </g>
            <g transform="translate(76.11,20.96)" id="img-7c88ef06-103" stroke="#FFFFFF" fill="#FF6765">
              <circle cx="0" cy="0" r="0.9" class="primitive"/>
            </g>
            <g transform="translate(76.11,20.96)" id="img-7c88ef06-104" stroke="#FFFFFF" fill="#FF6765">
              <circle cx="0" cy="0" r="0.9" class="primitive"/>
            </g>
            <g transform="translate(76.11,20.82)" id="img-7c88ef06-105" stroke="#FFFFFF" fill="#FF6765">
              <circle cx="0" cy="0" r="0.9" class="primitive"/>
            </g>
            <g transform="translate(76.11,20.82)" id="img-7c88ef06-106" stroke="#FFFFFF" fill="#FF6765">
              <circle cx="0" cy="0" r="0.9" class="primitive"/>
            </g>
            <g transform="translate(76.11,20.75)" id="img-7c88ef06-107" stroke="#FFFFFF" fill="#FF6765">
              <circle cx="0" cy="0" r="0.9" class="primitive"/>
            </g>
            <g transform="translate(76.11,20.54)" id="img-7c88ef06-108" stroke="#FFFFFF" fill="#FF6765">
              <circle cx="0" cy="0" r="0.9" class="primitive"/>
            </g>
            <g transform="translate(76.11,20.4)" id="img-7c88ef06-109" stroke="#FFFFFF" fill="#FF6765">
              <circle cx="0" cy="0" r="0.9" class="primitive"/>
            </g>
            <g transform="translate(57.1,30.35)" id="img-7c88ef06-110" stroke="#FFFFFF" fill="#00B78D">
              <circle cx="0" cy="0" r="0.9" class="primitive"/>
            </g>
            <g transform="translate(57.1,30.28)" id="img-7c88ef06-111" stroke="#FFFFFF" fill="#00B78D">
              <circle cx="0" cy="0" r="0.9" class="primitive"/>
            </g>
            <g transform="translate(57.1,30.28)" id="img-7c88ef06-112" stroke="#FFFFFF" fill="#00B78D">
              <circle cx="0" cy="0" r="0.9" class="primitive"/>
            </g>
            <g transform="translate(57.1,28.74)" id="img-7c88ef06-113" stroke="#FFFFFF" fill="#00B78D">
              <circle cx="0" cy="0" r="0.9" class="primitive"/>
            </g>
            <g transform="translate(57.1,27.9)" id="img-7c88ef06-114" stroke="#FFFFFF" fill="#00B78D">
              <circle cx="0" cy="0" r="0.9" class="primitive"/>
            </g>
            <g transform="translate(114.14,23.69)" id="img-7c88ef06-115" stroke="#FFFFFF" fill="#E870DD">
              <circle cx="0" cy="0" r="0.9" class="primitive"/>
            </g>
            <g transform="translate(114.14,23.55)" id="img-7c88ef06-116" stroke="#FFFFFF" fill="#E870DD">
              <circle cx="0" cy="0" r="0.9" class="primitive"/>
            </g>
            <g transform="translate(123.65,49.08)" id="img-7c88ef06-117" stroke="#FFFFFF" fill="#93A649">
              <circle cx="0" cy="0" r="0.9" class="primitive"/>
            </g>
            <g transform="translate(123.65,48.94)" id="img-7c88ef06-118" stroke="#FFFFFF" fill="#93A649">
              <circle cx="0" cy="0" r="0.9" class="primitive"/>
            </g>
            <g transform="translate(123.65,48.87)" id="img-7c88ef06-119" stroke="#FFFFFF" fill="#93A649">
              <circle cx="0" cy="0" r="0.9" class="primitive"/>
            </g>
            <g transform="translate(123.65,48.8)" id="img-7c88ef06-120" stroke="#FFFFFF" fill="#93A649">
              <circle cx="0" cy="0" r="0.9" class="primitive"/>
            </g>
            <g transform="translate(123.65,48.73)" id="img-7c88ef06-121" stroke="#FFFFFF" fill="#93A649">
              <circle cx="0" cy="0" r="0.9" class="primitive"/>
            </g>
            <g transform="translate(123.65,48.66)" id="img-7c88ef06-122" stroke="#FFFFFF" fill="#93A649">
              <circle cx="0" cy="0" r="0.9" class="primitive"/>
            </g>
            <g transform="translate(123.65,48.45)" id="img-7c88ef06-123" stroke="#FFFFFF" fill="#93A649">
              <circle cx="0" cy="0" r="0.9" class="primitive"/>
            </g>
            <g transform="translate(123.65,48.24)" id="img-7c88ef06-124" stroke="#FFFFFF" fill="#93A649">
              <circle cx="0" cy="0" r="0.9" class="primitive"/>
            </g>
            <g transform="translate(123.65,47.89)" id="img-7c88ef06-125" stroke="#FFFFFF" fill="#93A649">
              <circle cx="0" cy="0" r="0.9" class="primitive"/>
            </g>
            <g transform="translate(123.65,47.75)" id="img-7c88ef06-126" stroke="#FFFFFF" fill="#93A649">
              <circle cx="0" cy="0" r="0.9" class="primitive"/>
            </g>
            <g transform="translate(123.65,47.47)" id="img-7c88ef06-127" stroke="#FFFFFF" fill="#93A649">
              <circle cx="0" cy="0" r="0.9" class="primitive"/>
            </g>
            <g transform="translate(123.65,46.97)" id="img-7c88ef06-128" stroke="#FFFFFF" fill="#93A649">
              <circle cx="0" cy="0" r="0.9" class="primitive"/>
            </g>
            <g transform="translate(123.65,46.76)" id="img-7c88ef06-129" stroke="#FFFFFF" fill="#93A649">
              <circle cx="0" cy="0" r="0.9" class="primitive"/>
            </g>
            <g transform="translate(123.65,46.41)" id="img-7c88ef06-130" stroke="#FFFFFF" fill="#93A649">
              <circle cx="0" cy="0" r="0.9" class="primitive"/>
            </g>
            <g transform="translate(123.65,46.34)" id="img-7c88ef06-131" stroke="#FFFFFF" fill="#93A649">
              <circle cx="0" cy="0" r="0.9" class="primitive"/>
            </g>
            <g transform="translate(123.65,46.2)" id="img-7c88ef06-132" stroke="#FFFFFF" fill="#93A649">
              <circle cx="0" cy="0" r="0.9" class="primitive"/>
            </g>
            <g transform="translate(123.65,45.99)" id="img-7c88ef06-133" stroke="#FFFFFF" fill="#93A649">
              <circle cx="0" cy="0" r="0.9" class="primitive"/>
            </g>
            <g transform="translate(123.65,45.71)" id="img-7c88ef06-134" stroke="#FFFFFF" fill="#93A649">
              <circle cx="0" cy="0" r="0.9" class="primitive"/>
            </g>
            <g transform="translate(123.65,45.5)" id="img-7c88ef06-135" stroke="#FFFFFF" fill="#93A649">
              <circle cx="0" cy="0" r="0.9" class="primitive"/>
            </g>
            <g transform="translate(123.65,45.36)" id="img-7c88ef06-136" stroke="#FFFFFF" fill="#93A649">
              <circle cx="0" cy="0" r="0.9" class="primitive"/>
            </g>
            <g transform="translate(123.65,45.36)" id="img-7c88ef06-137" stroke="#FFFFFF" fill="#93A649">
              <circle cx="0" cy="0" r="0.9" class="primitive"/>
            </g>
            <g transform="translate(123.65,45.22)" id="img-7c88ef06-138" stroke="#FFFFFF" fill="#93A649">
              <circle cx="0" cy="0" r="0.9" class="primitive"/>
            </g>
            <g transform="translate(123.65,45.08)" id="img-7c88ef06-139" stroke="#FFFFFF" fill="#93A649">
              <circle cx="0" cy="0" r="0.9" class="primitive"/>
            </g>
            <g transform="translate(123.65,31.76)" id="img-7c88ef06-140" stroke="#FFFFFF" fill="#93A649">
              <circle cx="0" cy="0" r="0.9" class="primitive"/>
            </g>
            <g transform="translate(123.65,31.69)" id="img-7c88ef06-141" stroke="#FFFFFF" fill="#93A649">
              <circle cx="0" cy="0" r="0.9" class="primitive"/>
            </g>
            <g transform="translate(123.65,31.62)" id="img-7c88ef06-142" stroke="#FFFFFF" fill="#93A649">
              <circle cx="0" cy="0" r="0.9" class="primitive"/>
            </g>
            <g transform="translate(123.65,30.92)" id="img-7c88ef06-143" stroke="#FFFFFF" fill="#93A649">
              <circle cx="0" cy="0" r="0.9" class="primitive"/>
            </g>
            <g transform="translate(123.65,30.07)" id="img-7c88ef06-144" stroke="#FFFFFF" fill="#93A649">
              <circle cx="0" cy="0" r="0.9" class="primitive"/>
            </g>
            <g transform="translate(95.13,29.44)" id="img-7c88ef06-145" stroke="#FFFFFF" fill="#63DF75">
              <circle cx="0" cy="0" r="0.9" class="primitive"/>
            </g>
            <g transform="translate(95.13,28.88)" id="img-7c88ef06-146" stroke="#FFFFFF" fill="#63DF75">
              <circle cx="0" cy="0" r="0.9" class="primitive"/>
            </g>
            <g transform="translate(95.13,28.88)" id="img-7c88ef06-147" stroke="#FFFFFF" fill="#63DF75">
              <circle cx="0" cy="0" r="0.9" class="primitive"/>
            </g>
            <g transform="translate(95.13,28.88)" id="img-7c88ef06-148" stroke="#FFFFFF" fill="#63DF75">
              <circle cx="0" cy="0" r="0.9" class="primitive"/>
            </g>
            <g transform="translate(95.13,28.74)" id="img-7c88ef06-149" stroke="#FFFFFF" fill="#63DF75">
              <circle cx="0" cy="0" r="0.9" class="primitive"/>
            </g>
            <g transform="translate(95.13,28.67)" id="img-7c88ef06-150" stroke="#FFFFFF" fill="#63DF75">
              <circle cx="0" cy="0" r="0.9" class="primitive"/>
            </g>
            <g transform="translate(95.13,28.67)" id="img-7c88ef06-151" stroke="#FFFFFF" fill="#63DF75">
              <circle cx="0" cy="0" r="0.9" class="primitive"/>
            </g>
            <g transform="translate(95.13,28.67)" id="img-7c88ef06-152" stroke="#FFFFFF" fill="#63DF75">
              <circle cx="0" cy="0" r="0.9" class="primitive"/>
            </g>
            <g transform="translate(95.13,28.6)" id="img-7c88ef06-153" stroke="#FFFFFF" fill="#63DF75">
              <circle cx="0" cy="0" r="0.9" class="primitive"/>
            </g>
            <g transform="translate(95.13,28.6)" id="img-7c88ef06-154" stroke="#FFFFFF" fill="#63DF75">
              <circle cx="0" cy="0" r="0.9" class="primitive"/>
            </g>
            <g transform="translate(95.13,28.6)" id="img-7c88ef06-155" stroke="#FFFFFF" fill="#63DF75">
              <circle cx="0" cy="0" r="0.9" class="primitive"/>
            </g>
            <g transform="translate(95.13,28.6)" id="img-7c88ef06-156" stroke="#FFFFFF" fill="#63DF75">
              <circle cx="0" cy="0" r="0.9" class="primitive"/>
            </g>
            <g transform="translate(95.13,20.61)" id="img-7c88ef06-157" stroke="#FFFFFF" fill="#63DF75">
              <circle cx="0" cy="0" r="0.9" class="primitive"/>
            </g>
            <g transform="translate(95.13,20.61)" id="img-7c88ef06-158" stroke="#FFFFFF" fill="#63DF75">
              <circle cx="0" cy="0" r="0.9" class="primitive"/>
            </g>
            <g transform="translate(95.13,20.47)" id="img-7c88ef06-159" stroke="#FFFFFF" fill="#63DF75">
              <circle cx="0" cy="0" r="0.9" class="primitive"/>
            </g>
            <g transform="translate(95.13,20.4)" id="img-7c88ef06-160" stroke="#FFFFFF" fill="#63DF75">
              <circle cx="0" cy="0" r="0.9" class="primitive"/>
            </g>
            <g transform="translate(95.13,20.33)" id="img-7c88ef06-161" stroke="#FFFFFF" fill="#63DF75">
              <circle cx="0" cy="0" r="0.9" class="primitive"/>
            </g>
            <g transform="translate(95.13,20.33)" id="img-7c88ef06-162" stroke="#FFFFFF" fill="#63DF75">
              <circle cx="0" cy="0" r="0.9" class="primitive"/>
            </g>
            <g transform="translate(95.13,20.33)" id="img-7c88ef06-163" stroke="#FFFFFF" fill="#63DF75">
              <circle cx="0" cy="0" r="0.9" class="primitive"/>
            </g>
            <g transform="translate(95.13,20.19)" id="img-7c88ef06-164" stroke="#FFFFFF" fill="#63DF75">
              <circle cx="0" cy="0" r="0.9" class="primitive"/>
            </g>
            <g transform="translate(95.13,19.83)" id="img-7c88ef06-165" stroke="#FFFFFF" fill="#63DF75">
              <circle cx="0" cy="0" r="0.9" class="primitive"/>
            </g>
            <g transform="translate(95.13,18.92)" id="img-7c88ef06-166" stroke="#FFFFFF" fill="#63DF75">
              <circle cx="0" cy="0" r="0.9" class="primitive"/>
            </g>
            <g transform="translate(85.62,29.58)" id="img-7c88ef06-167" stroke="#FFFFFF" fill="#C6C6C6">
              <circle cx="0" cy="0" r="0.9" class="primitive"/>
            </g>
            <g transform="translate(85.62,29.23)" id="img-7c88ef06-168" stroke="#FFFFFF" fill="#C6C6C6">
              <circle cx="0" cy="0" r="0.9" class="primitive"/>
            </g>
            <g transform="translate(85.62,29.16)" id="img-7c88ef06-169" stroke="#FFFFFF" fill="#C6C6C6">
              <circle cx="0" cy="0" r="0.9" class="primitive"/>
            </g>
            <g transform="translate(85.62,29.09)" id="img-7c88ef06-170" stroke="#FFFFFF" fill="#C6C6C6">
              <circle cx="0" cy="0" r="0.9" class="primitive"/>
            </g>
            <g transform="translate(85.62,29.02)" id="img-7c88ef06-171" stroke="#FFFFFF" fill="#C6C6C6">
              <circle cx="0" cy="0" r="0.9" class="primitive"/>
            </g>
            <g transform="translate(85.62,28.88)" id="img-7c88ef06-172" stroke="#FFFFFF" fill="#C6C6C6">
              <circle cx="0" cy="0" r="0.9" class="primitive"/>
            </g>
            <g transform="translate(85.62,28.88)" id="img-7c88ef06-173" stroke="#FFFFFF" fill="#C6C6C6">
              <circle cx="0" cy="0" r="0.9" class="primitive"/>
            </g>
            <g transform="translate(85.62,20.33)" id="img-7c88ef06-174" stroke="#FFFFFF" fill="#C6C6C6">
              <circle cx="0" cy="0" r="0.9" class="primitive"/>
            </g>
            <g transform="translate(85.62,20.33)" id="img-7c88ef06-175" stroke="#FFFFFF" fill="#C6C6C6">
              <circle cx="0" cy="0" r="0.9" class="primitive"/>
            </g>
            <g transform="translate(85.62,20.33)" id="img-7c88ef06-176" stroke="#FFFFFF" fill="#C6C6C6">
              <circle cx="0" cy="0" r="0.9" class="primitive"/>
            </g>
            <g transform="translate(85.62,20.33)" id="img-7c88ef06-177" stroke="#FFFFFF" fill="#C6C6C6">
              <circle cx="0" cy="0" r="0.9" class="primitive"/>
            </g>
            <g transform="translate(85.62,20.12)" id="img-7c88ef06-178" stroke="#FFFFFF" fill="#C6C6C6">
              <circle cx="0" cy="0" r="0.9" class="primitive"/>
            </g>
            <g transform="translate(85.62,19.98)" id="img-7c88ef06-179" stroke="#FFFFFF" fill="#C6C6C6">
              <circle cx="0" cy="0" r="0.9" class="primitive"/>
            </g>
            <g transform="translate(85.62,19.91)" id="img-7c88ef06-180" stroke="#FFFFFF" fill="#C6C6C6">
              <circle cx="0" cy="0" r="0.9" class="primitive"/>
            </g>
            <g transform="translate(85.62,19.83)" id="img-7c88ef06-181" stroke="#FFFFFF" fill="#C6C6C6">
              <circle cx="0" cy="0" r="0.9" class="primitive"/>
            </g>
            <g transform="translate(85.62,19.55)" id="img-7c88ef06-182" stroke="#FFFFFF" fill="#C6C6C6">
              <circle cx="0" cy="0" r="0.9" class="primitive"/>
            </g>
            <g transform="translate(85.62,19.48)" id="img-7c88ef06-183" stroke="#FFFFFF" fill="#C6C6C6">
              <circle cx="0" cy="0" r="0.9" class="primitive"/>
            </g>
            <g transform="translate(85.62,19.13)" id="img-7c88ef06-184" stroke="#FFFFFF" fill="#C6C6C6">
              <circle cx="0" cy="0" r="0.9" class="primitive"/>
            </g>
            <g transform="translate(85.62,19.13)" id="img-7c88ef06-185" stroke="#FFFFFF" fill="#C6C6C6">
              <circle cx="0" cy="0" r="0.9" class="primitive"/>
            </g>
            <g transform="translate(133.15,45.57)" id="img-7c88ef06-186" stroke="#FFFFFF" fill="#FF9A4B">
              <circle cx="0" cy="0" r="0.9" class="primitive"/>
            </g>
            <g transform="translate(133.15,45.57)" id="img-7c88ef06-187" stroke="#FFFFFF" fill="#FF9A4B">
              <circle cx="0" cy="0" r="0.9" class="primitive"/>
            </g>
            <g transform="translate(133.15,45.36)" id="img-7c88ef06-188" stroke="#FFFFFF" fill="#FF9A4B">
              <circle cx="0" cy="0" r="0.9" class="primitive"/>
            </g>
            <g transform="translate(133.15,45.36)" id="img-7c88ef06-189" stroke="#FFFFFF" fill="#FF9A4B">
              <circle cx="0" cy="0" r="0.9" class="primitive"/>
            </g>
            <g transform="translate(133.15,44.87)" id="img-7c88ef06-190" stroke="#FFFFFF" fill="#FF9A4B">
              <circle cx="0" cy="0" r="0.9" class="primitive"/>
            </g>
            <g transform="translate(133.15,34.84)" id="img-7c88ef06-191" stroke="#FFFFFF" fill="#FF9A4B">
              <circle cx="0" cy="0" r="0.9" class="primitive"/>
            </g>
            <g transform="translate(133.15,34.35)" id="img-7c88ef06-192" stroke="#FFFFFF" fill="#FF9A4B">
              <circle cx="0" cy="0" r="0.9" class="primitive"/>
            </g>
          </g>
          <g transform="translate(66.61,22.92)" id="img-7c88ef06-193" stroke="#BEA9FF">
            <path fill="none" d="M-2.84,0 L2.84,0 " class="primitive"/>
          </g>
          <g transform="translate(76.11,22.99)" id="img-7c88ef06-194" stroke="#FF6765">
            <path fill="none" d="M-2.84,0 L2.84,0 " class="primitive"/>
          </g>
          <g transform="translate(57.1,30.7)" id="img-7c88ef06-195" stroke="#00B78D">
            <path fill="none" d="M-2.84,0 L2.84,0 " class="primitive"/>
          </g>
          <g transform="translate(114.14,24.18)" id="img-7c88ef06-196" stroke="#E870DD">
            <path fill="none" d="M-2.84,0 L2.84,0 " class="primitive"/>
          </g>
          <g transform="translate(47.59,35.54)" id="img-7c88ef06-197" stroke="#FF6DAE">
            <path fill="none" d="M-2.84,0 L2.84,0 " class="primitive"/>
          </g>
          <g transform="translate(123.65,32.25)" id="img-7c88ef06-198" stroke="#93A649">
            <path fill="none" d="M-2.84,0 L2.84,0 " class="primitive"/>
          </g>
          <g transform="translate(95.13,20.68)" id="img-7c88ef06-199" stroke="#63DF75">
            <path fill="none" d="M-2.84,0 L2.84,0 " class="primitive"/>
          </g>
          <g transform="translate(85.62,20.47)" id="img-7c88ef06-200" stroke="#C6C6C6">
            <path fill="none" d="M-2.84,0 L2.84,0 " class="primitive"/>
          </g>
          <g transform="translate(28.58,34)" id="img-7c88ef06-201" stroke="#00BFFF">
            <path fill="none" d="M-2.84,0 L2.84,0 " class="primitive"/>
          </g>
          <g transform="translate(133.15,35.12)" id="img-7c88ef06-202" stroke="#FF9A4B">
            <path fill="none" d="M-2.84,0 L2.84,0 " class="primitive"/>
          </g>
          <g transform="translate(104.63,20.68)" id="img-7c88ef06-203" stroke="#00E6D3">
            <path fill="none" d="M-2.84,0 L2.84,0 " class="primitive"/>
          </g>
          <g transform="translate(38.09,31.69)" id="img-7c88ef06-204" stroke="#D4CA3A">
            <path fill="none" d="M-2.84,0 L2.84,0 " class="primitive"/>
          </g>
          <g transform="translate(66.61,36.74)" id="img-7c88ef06-205" stroke="#BEA9FF">
            <path fill="none" d="M-2.84,0 L2.84,0 " class="primitive"/>
          </g>
          <g transform="translate(76.11,32.67)" id="img-7c88ef06-206" stroke="#FF6765">
            <path fill="none" d="M-2.84,0 L2.84,0 " class="primitive"/>
          </g>
          <g transform="translate(57.1,43.68)" id="img-7c88ef06-207" stroke="#00B78D">
            <path fill="none" d="M-2.84,0 L2.84,0 " class="primitive"/>
          </g>
          <g transform="translate(114.14,40.03)" id="img-7c88ef06-208" stroke="#E870DD">
            <path fill="none" d="M-2.84,0 L2.84,0 " class="primitive"/>
          </g>
          <g transform="translate(47.59,45.08)" id="img-7c88ef06-209" stroke="#FF6DAE">
            <path fill="none" d="M-2.84,0 L2.84,0 " class="primitive"/>
          </g>
          <g transform="translate(123.65,44.94)" id="img-7c88ef06-210" stroke="#93A649">
            <path fill="none" d="M-2.84,0 L2.84,0 " class="primitive"/>
          </g>
          <g transform="translate(95.13,28.46)" id="img-7c88ef06-211" stroke="#63DF75">
            <path fill="none" d="M-2.84,0 L2.84,0 " class="primitive"/>
          </g>
          <g transform="translate(85.62,28.53)" id="img-7c88ef06-212" stroke="#C6C6C6">
            <path fill="none" d="M-2.84,0 L2.84,0 " class="primitive"/>
          </g>
          <g transform="translate(28.58,56.02)" id="img-7c88ef06-213" stroke="#00BFFF">
            <path fill="none" d="M-2.84,0 L2.84,0 " class="primitive"/>
          </g>
          <g transform="translate(133.15,44.52)" id="img-7c88ef06-214" stroke="#FF9A4B">
            <path fill="none" d="M-2.84,0 L2.84,0 " class="primitive"/>
          </g>
          <g transform="translate(104.63,33.37)" id="img-7c88ef06-215" stroke="#00E6D3">
            <path fill="none" d="M-2.84,0 L2.84,0 " class="primitive"/>
          </g>
          <g transform="translate(38.09,50.55)" id="img-7c88ef06-216" stroke="#D4CA3A">
            <path fill="none" d="M-2.84,0 L2.84,0 " class="primitive"/>
          </g>
          <g transform="translate(66.61,25.97)" id="img-7c88ef06-217" stroke="#BEA9FF">
            <path fill="none" d="M0,3.05 L0,-3.05 " class="primitive"/>
          </g>
          <g transform="translate(76.11,24.85)" id="img-7c88ef06-218" stroke="#FF6765">
            <path fill="none" d="M0,1.86 L0,-1.86 " class="primitive"/>
          </g>
          <g transform="translate(57.1,33.5)" id="img-7c88ef06-219" stroke="#00B78D">
            <path fill="none" d="M0,2.8 L0,-2.8 " class="primitive"/>
          </g>
          <g transform="translate(114.14,27.86)" id="img-7c88ef06-220" stroke="#E870DD">
            <path fill="none" d="M0,3.68 L0,-3.68 " class="primitive"/>
          </g>
          <g transform="translate(47.59,37.23)" id="img-7c88ef06-221" stroke="#FF6DAE">
            <path fill="none" d="M0,1.68 L0,-1.68 " class="primitive"/>
          </g>
          <g transform="translate(123.65,34.56)" id="img-7c88ef06-222" stroke="#93A649">
            <path fill="none" d="M0,2.31 L0,-2.31 " class="primitive"/>
          </g>
          <g transform="translate(95.13,22.15)" id="img-7c88ef06-223" stroke="#63DF75">
            <path fill="none" d="M0,1.47 L0,-1.47 " class="primitive"/>
          </g>
          <g transform="translate(85.62,22.01)" id="img-7c88ef06-224" stroke="#C6C6C6">
            <path fill="none" d="M0,1.54 L0,-1.54 " class="primitive"/>
          </g>
          <g transform="translate(28.58,36.84)" id="img-7c88ef06-225" stroke="#00BFFF">
            <path fill="none" d="M0,2.84 L0,-2.84 " class="primitive"/>
          </g>
          <g transform="translate(133.15,36.88)" id="img-7c88ef06-226" stroke="#FF9A4B">
            <path fill="none" d="M0,1.75 L0,-1.75 " class="primitive"/>
          </g>
          <g transform="translate(104.63,22.82)" id="img-7c88ef06-227" stroke="#00E6D3">
            <path fill="none" d="M0,2.14 L0,-2.14 " class="primitive"/>
          </g>
          <g transform="translate(38.09,35.22)" id="img-7c88ef06-228" stroke="#D4CA3A">
            <path fill="none" d="M0,3.53 L0,-3.53 " class="primitive"/>
          </g>
          <g transform="translate(66.61,34.91)" id="img-7c88ef06-229" stroke="#BEA9FF">
            <path fill="none" d="M0,-1.82 L0,1.82 " class="primitive"/>
          </g>
          <g transform="translate(76.11,30.95)" id="img-7c88ef06-230" stroke="#FF6765">
            <path fill="none" d="M0,-1.72 L0,1.72 " class="primitive"/>
          </g>
          <g transform="translate(57.1,41.93)" id="img-7c88ef06-231" stroke="#00B78D">
            <path fill="none" d="M0,-1.75 L0,1.75 " class="primitive"/>
          </g>
          <g transform="translate(114.14,38.35)" id="img-7c88ef06-232" stroke="#E870DD">
            <path fill="none" d="M0,-1.68 L0,1.68 " class="primitive"/>
          </g>
          <g transform="translate(47.59,43.36)" id="img-7c88ef06-233" stroke="#FF6DAE">
            <path fill="none" d="M0,-1.72 L0,1.72 " class="primitive"/>
          </g>
          <g transform="translate(123.65,42.52)" id="img-7c88ef06-234" stroke="#93A649">
            <path fill="none" d="M0,-2.42 L0,2.42 " class="primitive"/>
          </g>
          <g transform="translate(95.13,27.02)" id="img-7c88ef06-235" stroke="#63DF75">
            <path fill="none" d="M0,-1.44 L0,1.44 " class="primitive"/>
          </g>
          <g transform="translate(85.62,27.09)" id="img-7c88ef06-236" stroke="#C6C6C6">
            <path fill="none" d="M0,-1.44 L0,1.44 " class="primitive"/>
          </g>
          <g transform="translate(28.58,51.46)" id="img-7c88ef06-237" stroke="#00BFFF">
            <path fill="none" d="M0,-4.56 L0,4.56 " class="primitive"/>
          </g>
          <g transform="translate(133.15,42.8)" id="img-7c88ef06-238" stroke="#FF9A4B">
            <path fill="none" d="M0,-1.72 L0,1.72 " class="primitive"/>
          </g>
          <g transform="translate(104.63,31.34)" id="img-7c88ef06-239" stroke="#00E6D3">
            <path fill="none" d="M0,-2.03 L0,2.03 " class="primitive"/>
          </g>
          <g transform="translate(38.09,47.33)" id="img-7c88ef06-240" stroke="#D4CA3A">
            <path fill="none" d="M0,-3.23 L0,3.23 " class="primitive"/>
          </g>
          <g stroke-width="0.6" id="img-7c88ef06-241">
            <g transform="translate(66.61,31.55)" id="img-7c88ef06-242" stroke="#FFFFFF">
              <path fill="none" d="M-2.84,0 L2.84,0 " class="primitive"/>
            </g>
            <g transform="translate(76.11,27.97)" id="img-7c88ef06-243" stroke="#FFD9CF">
              <path fill="none" d="M-2.84,0 L2.84,0 " class="primitive"/>
            </g>
            <g transform="translate(57.1,38.56)" id="img-7c88ef06-244" stroke="#9EFFFC">
              <path fill="none" d="M-2.84,0 L2.84,0 " class="primitive"/>
            </g>
            <g transform="translate(114.14,34.42)" id="img-7c88ef06-245" stroke="#FFE2FF">
              <path fill="none" d="M-2.84,0 L2.84,0 " class="primitive"/>
            </g>
            <g transform="translate(47.59,40.38)" id="img-7c88ef06-246" stroke="#FFDFFF">
              <path fill="none" d="M-2.84,0 L2.84,0 " class="primitive"/>
            </g>
            <g transform="translate(123.65,38.77)" id="img-7c88ef06-247" stroke="#FFFFB2">
              <path fill="none" d="M-2.84,0 L2.84,0 " class="primitive"/>
            </g>
            <g transform="translate(95.13,24.53)" id="img-7c88ef06-248" stroke="#DAFFE3">
              <path fill="none" d="M-2.84,0 L2.84,0 " class="primitive"/>
            </g>
            <g transform="translate(85.62,24.74)" id="img-7c88ef06-249" stroke="#FFFFFF">
              <path fill="none" d="M-2.84,0 L2.84,0 " class="primitive"/>
            </g>
            <g transform="translate(28.58,43.89)" id="img-7c88ef06-250" stroke="#B5FFFF">
              <path fill="none" d="M-2.84,0 L2.84,0 " class="primitive"/>
            </g>
            <g transform="translate(133.15,39.96)" id="img-7c88ef06-251" stroke="#FFFFB6">
              <path fill="none" d="M-2.84,0 L2.84,0 " class="primitive"/>
            </g>
            <g transform="translate(104.63,26.95)" id="img-7c88ef06-252" stroke="#B3FFFF">
              <path fill="none" d="M-2.84,0 L2.84,0 " class="primitive"/>
            </g>
            <g transform="translate(38.09,40.91)" id="img-7c88ef06-253" stroke="#FFFFAB">
              <path fill="none" d="M-2.84,0 L2.84,0 " class="primitive"/>
            </g>
          </g>
        </g>
      </g>
    </g>
  </g>
  <g class="guide ylabels" font-size="2.82" font-family="'PT Sans Caption','Helvetica Neue','Helvetica',sans-serif" fill="#6C606B" id="img-7c88ef06-254">
    <g transform="translate(18.07,68.72)" id="img-7c88ef06-255">
      <g class="primitive">
        <text text-anchor="end" dy="0.35em">-40</text>
      </g>
    </g>
    <g transform="translate(18.07,54.69)" id="img-7c88ef06-256">
      <g class="primitive">
        <text text-anchor="end" dy="0.35em">-20</text>
      </g>
    </g>
    <g transform="translate(18.07,40.66)" id="img-7c88ef06-257">
      <g class="primitive">
        <text text-anchor="end" dy="0.35em">0</text>
      </g>
    </g>
    <g transform="translate(18.07,26.64)" id="img-7c88ef06-258">
      <g class="primitive">
        <text text-anchor="end" dy="0.35em">20</text>
      </g>
    </g>
    <g transform="translate(18.07,12.61)" id="img-7c88ef06-259">
      <g class="primitive">
        <text text-anchor="end" dy="0.35em">40</text>
      </g>
    </g>
  </g>
  <g font-size="3.88" font-family="'PT Sans','Helvetica Neue','Helvetica',sans-serif" fill="#564A55" stroke="#000000" stroke-opacity="0.000" id="img-7c88ef06-260">
    <g transform="translate(8.81,38.66)" id="img-7c88ef06-261">
      <g class="primitive">
        <text text-anchor="middle" dy="0.35em" transform="rotate(-90,0, 2)">Temperature (°C)</text>
      </g>
    </g>
  </g>
  <g font-size="3.88" font-family="'PT Sans','Helvetica Neue','Helvetica',sans-serif" fill="#564A55" stroke="#000000" stroke-opacity="0.000" id="img-7c88ef06-262">
    <g transform="translate(80.87,5)" id="img-7c88ef06-263">
      <g class="primitive">
        <text text-anchor="middle" dy="0.6em">Monthly Weather in Toronto (2018)</text>
      </g>
    </g>
  </g>
</g>
<defs>
  <clipPath id="img-7c88ef06-34">
    <path d="M19.07,10.61 L142.66,10.61 142.66,70.72 19.07,70.72 " />
  </clipPath>
</defs>
</svg>
