<?xml version="1.0" encoding="UTF-8"?>
<svg xmlns="http://www.w3.org/2000/svg"
     xmlns:xlink="http://www.w3.org/1999/xlink"
     xmlns:gadfly="http://www.gadflyjl.org/ns"
     version="1.2"
     width="160mm" height="90mm" viewBox="0 0 160 90"
     stroke="none"
     fill="#000000"
     stroke-width="0.3"
     font-size="3.88"
>
<defs>
  <marker id="arrow" markerWidth="15" markerHeight="7" refX="5" refY="3.5" orient="auto" markerUnits="strokeWidth">
    <path d="M0,0 L15,3.5 L0,7 z" stroke="context-stroke" fill="context-stroke"/>
  </marker>
</defs>
<g stroke="#000000" stroke-opacity="0.000" fill="#FFFFFF" id="img-cb2e7da6-1">
  <g transform="translate(80,45)">
    <path d="M-80,-45 L80,-45 80,45 -80,45  z" class="primitive"/>
  </g>
</g>
<g class="plotroot yscalable" id="img-cb2e7da6-2">
  <g font-size="3.88" font-family="'PT Sans','Helvetica Neue','Helvetica',sans-serif" fill="#564A55" stroke="#000000" stroke-opacity="0.000" id="img-cb2e7da6-3">
    <g transform="translate(80.87,78.39)">
      <g class="primitive">
        <text text-anchor="middle" dy="0.6em">Months</text>
      </g>
    </g>
  </g>
  <g class="guide xlabels" font-size="2.82" font-family="'PT Sans Caption','Helvetica Neue','Helvetica',sans-serif" fill="#6C606B" id="img-cb2e7da6-4">
    <g transform="translate(19.07,71.72)">
      <g class="primitive">
        <text text-anchor="middle" dy="0.6em"></text>
      </g>
    </g>
    <g transform="translate(28.58,71.72)">
      <g class="primitive">
        <text text-anchor="middle" dy="0.6em">Jan</text>
      </g>
    </g>
    <g transform="translate(38.09,71.72)">
      <g class="primitive">
        <text text-anchor="middle" dy="0.6em">Feb</text>
      </g>
    </g>
    <g transform="translate(47.59,71.72)">
      <g class="primitive">
        <text text-anchor="middle" dy="0.6em">Mar</text>
      </g>
    </g>
    <g transform="translate(57.1,71.72)">
      <g class="primitive">
        <text text-anchor="middle" dy="0.6em">Apr</text>
      </g>
    </g>
    <g transform="translate(66.61,71.72)">
      <g class="primitive">
        <text text-anchor="middle" dy="0.6em">May</text>
      </g>
    </g>
    <g transform="translate(76.11,71.72)">
      <g class="primitive">
        <text text-anchor="middle" dy="0.6em">Jun</text>
      </g>
    </g>
    <g transform="translate(85.62,71.72)">
      <g class="primitive">
        <text text-anchor="middle" dy="0.6em">Jul</text>
      </g>
    </g>
    <g transform="translate(95.13,71.72)">
      <g class="primitive">
        <text text-anchor="middle" dy="0.6em">Aug</text>
      </g>
    </g>
    <g transform="translate(104.63,71.72)">
      <g class="primitive">
        <text text-anchor="middle" dy="0.6em">Sep</text>
      </g>
    </g>
    <g transform="translate(114.14,71.72)">
      <g class="primitive">
        <text text-anchor="middle" dy="0.6em">Oct</text>
      </g>
    </g>
    <g transform="translate(123.65,71.72)">
      <g class="primitive">
        <text text-anchor="middle" dy="0.6em">Nov</text>
      </g>
    </g>
    <g transform="translate(133.15,71.72)">
      <g class="primitive">
        <text text-anchor="middle" dy="0.6em">Dec</text>
      </g>
    </g>
    <g transform="translate(142.66,71.72)">
      <g class="primitive">
        <text text-anchor="middle" dy="0.6em"></text>
      </g>
    </g>
  </g>
  <g class="guide colorkey" id="img-cb2e7da6-5">
    <g fill="#4C404B" font-size="2.82" font-family="'PT Sans','Helvetica Neue','Helvetica',sans-serif" id="img-cb2e7da6-6">
      <g transform="translate(146.48,22.53)" id="img-cb2e7da6-7" class="color_Jan">
        <g class="primitive">
          <text dy="0.35em">Jan</text>
        </g>
      </g>
      <g transform="translate(146.48,26.16)" id="img-cb2e7da6-8" class="color_Feb">
        <g class="primitive">
          <text dy="0.35em">Feb</text>
        </g>
      </g>
      <g transform="translate(146.48,29.78)" id="img-cb2e7da6-9" class="color_Mar">
        <g class="primitive">
          <text dy="0.35em">Mar</text>
        </g>
      </g>
      <g transform="translate(146.48,33.41)" id="img-cb2e7da6-10" class="color_Apr">
        <g class="primitive">
          <text dy="0.35em">Apr</text>
        </g>
      </g>
      <g transform="translate(146.48,37.04)" id="img-cb2e7da6-11" class="color_May">
        <g class="primitive">
          <text dy="0.35em">May</text>
        </g>
      </g>
      <g transform="translate(146.48,40.66)" id="img-cb2e7da6-12" class="color_Jun">
        <g class="primitive">
          <text dy="0.35em">Jun</text>
        </g>
      </g>
      <g transform="translate(146.48,44.29)" id="img-cb2e7da6-13" class="color_Jul">
        <g class="primitive">
          <text dy="0.35em">Jul</text>
        </g>
      </g>
      <g transform="translate(146.48,47.92)" id="img-cb2e7da6-14" class="color_Aug">
        <g class="primitive">
          <text dy="0.35em">Aug</text>
        </g>
      </g>
      <g transform="translate(146.48,51.54)" id="img-cb2e7da6-15" class="color_Sep">
        <g class="primitive">
          <text dy="0.35em">Sep</text>
        </g>
      </g>
      <g transform="translate(146.48,55.17)" id="img-cb2e7da6-16" class="color_Oct">
        <g class="primitive">
          <text dy="0.35em">Oct</text>
        </g>
      </g>
      <g transform="translate(146.48,58.8)" id="img-cb2e7da6-17" class="color_Nov">
        <g class="primitive">
          <text dy="0.35em">Nov</text>
        </g>
      </g>
      <g transform="translate(146.48,62.42)" id="img-cb2e7da6-18" class="color_Dec">
        <g class="primitive">
          <text dy="0.35em">Dec</text>
        </g>
      </g>
    </g>
    <g fill-opacity="1" id="img-cb2e7da6-19">
      <g transform="translate(144.57,22.53)" id="img-cb2e7da6-20" stroke="#FFFFFF" class="color_Jan" fill="#00BFFF">
        <path d="M-0.91,-0.91 L0.91,-0.91 0.91,0.91 -0.91,0.91  z" class="primitive"/>
      </g>
      <g transform="translate(144.57,26.16)" id="img-cb2e7da6-21" stroke="#FFFFFF" class="color_Feb" fill="#D4CA3A">
        <path d="M-0.91,-0.91 L0.91,-0.91 0.91,0.91 -0.91,0.91  z" class="primitive"/>
      </g>
      <g transform="translate(144.57,29.78)" id="img-cb2e7da6-22" stroke="#FFFFFF" class="color_Mar" fill="#FF6DAE">
        <path d="M-0.91,-0.91 L0.91,-0.91 0.91,0.91 -0.91,0.91  z" class="primitive"/>
      </g>
      <g transform="translate(144.57,33.41)" id="img-cb2e7da6-23" stroke="#FFFFFF" class="color_Apr" fill="#00B78D">
        <path d="M-0.91,-0.91 L0.91,-0.91 0.91,0.91 -0.91,0.91  z" class="primitive"/>
      </g>
      <g transform="translate(144.57,37.04)" id="img-cb2e7da6-24" stroke="#FFFFFF" class="color_May" fill="#BEA9FF">
        <path d="M-0.91,-0.91 L0.91,-0.91 0.91,0.91 -0.91,0.91  z" class="primitive"/>
      </g>
      <g transform="translate(144.57,40.66)" id="img-cb2e7da6-25" stroke="#FFFFFF" class="color_Jun" fill="#FF6765">
        <path d="M-0.91,-0.91 L0.91,-0.91 0.91,0.91 -0.91,0.91  z" class="primitive"/>
      </g>
      <g transform="translate(144.57,44.29)" id="img-cb2e7da6-26" stroke="#FFFFFF" class="color_Jul" fill="#C6C6C6">
        <path d="M-0.91,-0.91 L0.91,-0.91 0.91,0.91 -0.91,0.91  z" class="primitive"/>
      </g>
      <g transform="translate(144.57,47.92)" id="img-cb2e7da6-27" stroke="#FFFFFF" class="color_Aug" fill="#63DF75">
        <path d="M-0.91,-0.91 L0.91,-0.91 0.91,0.91 -0.91,0.91  z" class="primitive"/>
      </g>
      <g transform="translate(144.57,51.54)" id="img-cb2e7da6-28" stroke="#FFFFFF" class="color_Sep" fill="#00E6D3">
        <path d="M-0.91,-0.91 L0.91,-0.91 0.91,0.91 -0.91,0.91  z" class="primitive"/>
      </g>
      <g transform="translate(144.57,55.17)" id="img-cb2e7da6-29" stroke="#FFFFFF" class="color_Oct" fill="#E870DD">
        <path d="M-0.91,-0.91 L0.91,-0.91 0.91,0.91 -0.91,0.91  z" class="primitive"/>
      </g>
      <g transform="translate(144.57,58.8)" id="img-cb2e7da6-30" stroke="#FFFFFF" class="color_Nov" fill="#93A649">
        <path d="M-0.91,-0.91 L0.91,-0.91 0.91,0.91 -0.91,0.91  z" class="primitive"/>
      </g>
      <g transform="translate(144.57,62.42)" id="img-cb2e7da6-31" stroke="#FFFFFF" class="color_Dec" fill="#FF9A4B">
        <path d="M-0.91,-0.91 L0.91,-0.91 0.91,0.91 -0.91,0.91  z" class="primitive"/>
      </g>
    </g>
    <g fill="#362A35" font-size="3.88" font-family="'PT Sans','Helvetica Neue','Helvetica',sans-serif" stroke="#000000" stroke-opacity="0.000" id="img-cb2e7da6-32">
      <g transform="translate(143.66,18.71)" id="img-cb2e7da6-33">
        <g class="primitive">
          <text dy="-0em">Months</text>
        </g>
      </g>
    </g>
  </g>
  <g clip-path="url(#img-cb2e7da6-34)">
    <g id="img-cb2e7da6-35">
      <g pointer-events="visible" stroke-width="0.3" fill="#000000" fill-opacity="0.000" stroke="#000000" stroke-opacity="0.000" class="guide background" id="img-cb2e7da6-36">
        <g transform="translate(80.87,40.66)" id="img-cb2e7da6-37">
          <path d="M-61.8,-30.05 L61.8,-30.05 61.8,30.05 -61.8,30.05  z" class="primitive"/>
        </g>
      </g>
      <g class="guide ygridlines xfixed" stroke-dasharray="0.5,0.5" stroke-width="0.2" stroke="#D0D0E0" id="img-cb2e7da6-38">
        <g transform="translate(80.87,68.72)" id="img-cb2e7da6-39">
          <path fill="none" d="M-61.8,0 L61.8,0 " class="primitive"/>
        </g>
        <g transform="translate(80.87,59.36)" id="img-cb2e7da6-40">
          <path fill="none" d="M-61.8,0 L61.8,0 " class="primitive"/>
        </g>
        <g transform="translate(80.87,50.01)" id="img-cb2e7da6-41">
          <path fill="none" d="M-61.8,0 L61.8,0 " class="primitive"/>
        </g>
        <g transform="translate(80.87,40.66)" id="img-cb2e7da6-42">
          <path fill="none" d="M-61.8,0 L61.8,0 " class="primitive"/>
        </g>
        <g transform="translate(80.87,31.31)" id="img-cb2e7da6-43">
          <path fill="none" d="M-61.8,0 L61.8,0 " class="primitive"/>
        </g>
        <g transform="translate(80.87,21.96)" id="img-cb2e7da6-44">
          <path fill="none" d="M-61.8,0 L61.8,0 " class="primitive"/>
        </g>
        <g transform="translate(80.87,12.61)" id="img-cb2e7da6-45">
          <path fill="none" d="M-61.8,0 L61.8,0 " class="primitive"/>
        </g>
      </g>
      <g class="guide xgridlines yfixed" stroke-dasharray="0.5,0.5" stroke-width="0.2" stroke="#D0D0E0" id="img-cb2e7da6-46">
        <g transform="translate(19.07,40.66)" id="img-cb2e7da6-47">
          <path fill="none" d="M0,-30.05 L0,30.05 " class="primitive"/>
        </g>
        <g transform="translate(28.58,40.66)" id="img-cb2e7da6-48">
          <path fill="none" d="M0,-30.05 L0,30.05 " class="primitive"/>
        </g>
        <g transform="translate(38.09,40.66)" id="img-cb2e7da6-49">
          <path fill="none" d="M0,-30.05 L0,30.05 " class="primitive"/>
        </g>
        <g transform="translate(47.59,40.66)" id="img-cb2e7da6-50">
          <path fill="none" d="M0,-30.05 L0,30.05 " class="primitive"/>
        </g>
        <g transform="translate(57.1,40.66)" id="img-cb2e7da6-51">
          <path fill="none" d="M0,-30.05 L0,30.05 " class="primitive"/>
        </g>
        <g transform="translate(66.61,40.66)" id="img-cb2e7da6-52">
          <path fill="none" d="M0,-30.05 L0,30.05 " class="primitive"/>
        </g>
        <g transform="translate(76.11,40.66)" id="img-cb2e7da6-53">
          <path fill="none" d="M0,-30.05 L0,30.05 " class="primitive"/>
        </g>
        <g transform="translate(85.62,40.66)" id="img-cb2e7da6-54">
          <path fill="none" d="M0,-30.05 L0,30.05 " class="primitive"/>
        </g>
        <g transform="translate(95.13,40.66)" id="img-cb2e7da6-55">
          <path fill="none" d="M0,-30.05 L0,30.05 " class="primitive"/>
        </g>
        <g transform="translate(104.63,40.66)" id="img-cb2e7da6-56">
          <path fill="none" d="M0,-30.05 L0,30.05 " class="primitive"/>
        </g>
        <g transform="translate(114.14,40.66)" id="img-cb2e7da6-57">
          <path fill="none" d="M0,-30.05 L0,30.05 " class="primitive"/>
        </g>
        <g transform="translate(123.65,40.66)" id="img-cb2e7da6-58">
          <path fill="none" d="M0,-30.05 L0,30.05 " class="primitive"/>
        </g>
        <g transform="translate(133.15,40.66)" id="img-cb2e7da6-59">
          <path fill="none" d="M0,-30.05 L0,30.05 " class="primitive"/>
        </g>
        <g transform="translate(142.66,40.66)" id="img-cb2e7da6-60">
          <path fill="none" d="M0,-30.05 L0,30.05 " class="primitive"/>
        </g>
      </g>
      <g class="plotpanel" id="img-cb2e7da6-61">
        <metadata>
          <boundingbox value="19.071666666666687mm 10.611666666666672mm 123.59mm 60.10333333333333mm"/>
          <unitbox value="0.0 42.13891034400808 13.0 -64.27782068801616"/>
        </metadata>
        <g class="geometry" stroke-width="0.3" id="img-cb2e7da6-62">
          <g transform="translate(66.61,38.28)" id="img-cb2e7da6-63" stroke="#BEA9FF" fill="#BEA9FF">
            <path d="M-4.25,-3.62 L4.25,-3.62 4.25,3.62 -4.25,3.62  z" class="primitive"/>
          </g>
          <g transform="translate(76.11,32.56)" id="img-cb2e7da6-64" stroke="#FF6765" fill="#FF6765">
            <path d="M-4.25,-1.84 L4.25,-1.84 4.25,1.84 -4.25,1.84  z" class="primitive"/>
          </g>
          <g transform="translate(57.1,43.09)" id="img-cb2e7da6-65" stroke="#00B78D" fill="#00B78D">
            <path d="M-4.25,-2.06 L4.25,-2.06 4.25,2.06 -4.25,2.06  z" class="primitive"/>
          </g>
          <g transform="translate(114.14,36.97)" id="img-cb2e7da6-66" stroke="#E870DD" fill="#E870DD">
            <path d="M-4.25,-3.41 L4.25,-3.41 4.25,3.41 -4.25,3.41  z" class="primitive"/>
          </g>
          <g transform="translate(47.59,46.85)" id="img-cb2e7da6-67" stroke="#FF6DAE" fill="#FF6DAE">
            <path d="M-4.25,-3.47 L4.25,-3.47 4.25,3.47 -4.25,3.47  z" class="primitive"/>
          </g>
          <g transform="translate(123.65,45.06)" id="img-cb2e7da6-68" stroke="#93A649" fill="#93A649">
            <path d="M-4.25,-2.62 L4.25,-2.62 4.25,2.62 -4.25,2.62  z" class="primitive"/>
          </g>
          <g transform="translate(95.13,27.95)" id="img-cb2e7da6-69" stroke="#63DF75" fill="#63DF75">
            <path d="M-4.25,-1.59 L4.25,-1.59 4.25,1.59 -4.25,1.59  z" class="primitive"/>
          </g>
          <g transform="translate(85.62,30.56)" id="img-cb2e7da6-70" stroke="#C6C6C6" fill="#C6C6C6">
            <path d="M-4.25,-1.4 L4.25,-1.4 4.25,1.4 -4.25,1.4  z" class="primitive"/>
          </g>
          <g transform="translate(28.58,51.14)" id="img-cb2e7da6-71" stroke="#00BFFF" fill="#00BFFF">
            <path d="M-4.25,-2.24 L4.25,-2.24 4.25,2.24 -4.25,2.24  z" class="primitive"/>
          </g>
          <g transform="translate(133.15,47.73)" id="img-cb2e7da6-72" stroke="#FF9A4B" fill="#FF9A4B">
            <path d="M-4.25,-2.02 L4.25,-2.02 4.25,2.02 -4.25,2.02  z" class="primitive"/>
          </g>
          <g transform="translate(104.63,32.9)" id="img-cb2e7da6-73" stroke="#00E6D3" fill="#00E6D3">
            <path d="M-4.25,-1.96 L4.25,-1.96 4.25,1.96 -4.25,1.96  z" class="primitive"/>
          </g>
          <g transform="translate(38.09,53.19)" id="img-cb2e7da6-74" stroke="#D4CA3A" fill="#D4CA3A">
            <path d="M-4.25,-3.27 L4.25,-3.27 4.25,3.27 -4.25,3.27  z" class="primitive"/>
          </g>
          <g class="marker" id="img-cb2e7da6-75">
            <g transform="translate(66.61,23.36)" id="img-cb2e7da6-76" stroke="#FFFFFF" fill="#BEA9FF">
              <circle cx="0" cy="0" r="0.9" class="primitive"/>
            </g>
            <g transform="translate(76.11,40.1)" id="img-cb2e7da6-77" stroke="#FFFFFF" fill="#FF6765">
              <circle cx="0" cy="0" r="0.9" class="primitive"/>
            </g>
            <g transform="translate(76.11,40.01)" id="img-cb2e7da6-78" stroke="#FFFFFF" fill="#FF6765">
              <circle cx="0" cy="0" r="0.9" class="primitive"/>
            </g>
            <g transform="translate(76.11,25.05)" id="img-cb2e7da6-79" stroke="#FFFFFF" fill="#FF6765">
              <circle cx="0" cy="0" r="0.9" class="primitive"/>
            </g>
            <g transform="translate(76.11,24.95)" id="img-cb2e7da6-80" stroke="#FFFFFF" fill="#FF6765">
              <circle cx="0" cy="0" r="0.9" class="primitive"/>
            </g>
            <g transform="translate(76.11,24.86)" id="img-cb2e7da6-81" stroke="#FFFFFF" fill="#FF6765">
              <circle cx="0" cy="0" r="0.9" class="primitive"/>
            </g>
            <g transform="translate(76.11,24.86)" id="img-cb2e7da6-82" stroke="#FFFFFF" fill="#FF6765">
              <circle cx="0" cy="0" r="0.9" class="primitive"/>
            </g>
            <g transform="translate(76.11,24.86)" id="img-cb2e7da6-83" stroke="#FFFFFF" fill="#FF6765">
              <circle cx="0" cy="0" r="0.9" class="primitive"/>
            </g>
            <g transform="translate(76.11,24.49)" id="img-cb2e7da6-84" stroke="#FFFFFF" fill="#FF6765">
              <circle cx="0" cy="0" r="0.9" class="primitive"/>
            </g>
            <g transform="translate(76.11,24.49)" id="img-cb2e7da6-85" stroke="#FFFFFF" fill="#FF6765">
              <circle cx="0" cy="0" r="0.9" class="primitive"/>
            </g>
            <g transform="translate(76.11,24.39)" id="img-cb2e7da6-86" stroke="#FFFFFF" fill="#FF6765">
              <circle cx="0" cy="0" r="0.9" class="primitive"/>
            </g>
            <g transform="translate(76.11,24.3)" id="img-cb2e7da6-87" stroke="#FFFFFF" fill="#FF6765">
              <circle cx="0" cy="0" r="0.9" class="primitive"/>
            </g>
            <g transform="translate(76.11,23.83)" id="img-cb2e7da6-88" stroke="#FFFFFF" fill="#FF6765">
              <circle cx="0" cy="0" r="0.9" class="primitive"/>
            </g>
            <g transform="translate(76.11,23.65)" id="img-cb2e7da6-89" stroke="#FFFFFF" fill="#FF6765">
              <circle cx="0" cy="0" r="0.9" class="primitive"/>
            </g>
            <g transform="translate(76.11,23.65)" id="img-cb2e7da6-90" stroke="#FFFFFF" fill="#FF6765">
              <circle cx="0" cy="0" r="0.9" class="primitive"/>
            </g>
            <g transform="translate(76.11,23.46)" id="img-cb2e7da6-91" stroke="#FFFFFF" fill="#FF6765">
              <circle cx="0" cy="0" r="0.9" class="primitive"/>
            </g>
            <g transform="translate(76.11,23.27)" id="img-cb2e7da6-92" stroke="#FFFFFF" fill="#FF6765">
              <circle cx="0" cy="0" r="0.9" class="primitive"/>
            </g>
            <g transform="translate(76.11,22.9)" id="img-cb2e7da6-93" stroke="#FFFFFF" fill="#FF6765">
              <circle cx="0" cy="0" r="0.9" class="primitive"/>
            </g>
            <g transform="translate(76.11,22.62)" id="img-cb2e7da6-94" stroke="#FFFFFF" fill="#FF6765">
              <circle cx="0" cy="0" r="0.9" class="primitive"/>
            </g>
            <g transform="translate(76.11,22.06)" id="img-cb2e7da6-95" stroke="#FFFFFF" fill="#FF6765">
              <circle cx="0" cy="0" r="0.9" class="primitive"/>
            </g>
            <g transform="translate(76.11,21.49)" id="img-cb2e7da6-96" stroke="#FFFFFF" fill="#FF6765">
              <circle cx="0" cy="0" r="0.9" class="primitive"/>
            </g>
            <g transform="translate(57.1,53.19)" id="img-cb2e7da6-97" stroke="#FFFFFF" fill="#00B78D">
              <circle cx="0" cy="0" r="0.9" class="primitive"/>
            </g>
            <g transform="translate(57.1,52.63)" id="img-cb2e7da6-98" stroke="#FFFFFF" fill="#00B78D">
              <circle cx="0" cy="0" r="0.9" class="primitive"/>
            </g>
            <g transform="translate(57.1,52.63)" id="img-cb2e7da6-99" stroke="#FFFFFF" fill="#00B78D">
              <circle cx="0" cy="0" r="0.9" class="primitive"/>
            </g>
            <g transform="translate(57.1,52.45)" id="img-cb2e7da6-100" stroke="#FFFFFF" fill="#00B78D">
              <circle cx="0" cy="0" r="0.9" class="primitive"/>
            </g>
            <g transform="translate(57.1,52.16)" id="img-cb2e7da6-101" stroke="#FFFFFF" fill="#00B78D">
              <circle cx="0" cy="0" r="0.9" class="primitive"/>
            </g>
            <g transform="translate(57.1,52.07)" id="img-cb2e7da6-102" stroke="#FFFFFF" fill="#00B78D">
              <circle cx="0" cy="0" r="0.9" class="primitive"/>
            </g>
            <g transform="translate(57.1,51.79)" id="img-cb2e7da6-103" stroke="#FFFFFF" fill="#00B78D">
              <circle cx="0" cy="0" r="0.9" class="primitive"/>
            </g>
            <g transform="translate(57.1,51.6)" id="img-cb2e7da6-104" stroke="#FFFFFF" fill="#00B78D">
              <circle cx="0" cy="0" r="0.9" class="primitive"/>
            </g>
            <g transform="translate(57.1,51.51)" id="img-cb2e7da6-105" stroke="#FFFFFF" fill="#00B78D">
              <circle cx="0" cy="0" r="0.9" class="primitive"/>
            </g>
            <g transform="translate(57.1,34.59)" id="img-cb2e7da6-106" stroke="#FFFFFF" fill="#00B78D">
              <circle cx="0" cy="0" r="0.9" class="primitive"/>
            </g>
            <g transform="translate(57.1,34.4)" id="img-cb2e7da6-107" stroke="#FFFFFF" fill="#00B78D">
              <circle cx="0" cy="0" r="0.9" class="primitive"/>
            </g>
            <g transform="translate(57.1,34.4)" id="img-cb2e7da6-108" stroke="#FFFFFF" fill="#00B78D">
              <circle cx="0" cy="0" r="0.9" class="primitive"/>
            </g>
            <g transform="translate(57.1,34.12)" id="img-cb2e7da6-109" stroke="#FFFFFF" fill="#00B78D">
              <circle cx="0" cy="0" r="0.9" class="primitive"/>
            </g>
            <g transform="translate(57.1,33.46)" id="img-cb2e7da6-110" stroke="#FFFFFF" fill="#00B78D">
              <circle cx="0" cy="0" r="0.9" class="primitive"/>
            </g>
            <g transform="translate(57.1,32.15)" id="img-cb2e7da6-111" stroke="#FFFFFF" fill="#00B78D">
              <circle cx="0" cy="0" r="0.9" class="primitive"/>
            </g>
            <g transform="translate(57.1,31.97)" id="img-cb2e7da6-112" stroke="#FFFFFF" fill="#00B78D">
              <circle cx="0" cy="0" r="0.9" class="primitive"/>
            </g>
            <g transform="translate(47.59,61.23)" id="img-cb2e7da6-113" stroke="#FFFFFF" fill="#FF6DAE">
              <circle cx="0" cy="0" r="0.9" class="primitive"/>
            </g>
            <g transform="translate(47.59,61.23)" id="img-cb2e7da6-114" stroke="#FFFFFF" fill="#FF6DAE">
              <circle cx="0" cy="0" r="0.9" class="primitive"/>
            </g>
            <g transform="translate(47.59,61.14)" id="img-cb2e7da6-115" stroke="#FFFFFF" fill="#FF6DAE">
              <circle cx="0" cy="0" r="0.9" class="primitive"/>
            </g>
            <g transform="translate(47.59,60.77)" id="img-cb2e7da6-116" stroke="#FFFFFF" fill="#FF6DAE">
              <circle cx="0" cy="0" r="0.9" class="primitive"/>
            </g>
            <g transform="translate(47.59,60.77)" id="img-cb2e7da6-117" stroke="#FFFFFF" fill="#FF6DAE">
              <circle cx="0" cy="0" r="0.9" class="primitive"/>
            </g>
            <g transform="translate(95.13,36.18)" id="img-cb2e7da6-118" stroke="#FFFFFF" fill="#63DF75">
              <circle cx="0" cy="0" r="0.9" class="primitive"/>
            </g>
            <g transform="translate(95.13,35.52)" id="img-cb2e7da6-119" stroke="#FFFFFF" fill="#63DF75">
              <circle cx="0" cy="0" r="0.9" class="primitive"/>
            </g>
            <g transform="translate(95.13,35.43)" id="img-cb2e7da6-120" stroke="#FFFFFF" fill="#63DF75">
              <circle cx="0" cy="0" r="0.9" class="primitive"/>
            </g>
            <g transform="translate(95.13,35.24)" id="img-cb2e7da6-121" stroke="#FFFFFF" fill="#63DF75">
              <circle cx="0" cy="0" r="0.9" class="primitive"/>
            </g>
            <g transform="translate(95.13,35.15)" id="img-cb2e7da6-122" stroke="#FFFFFF" fill="#63DF75">
              <circle cx="0" cy="0" r="0.9" class="primitive"/>
            </g>
            <g transform="translate(95.13,34.96)" id="img-cb2e7da6-123" stroke="#FFFFFF" fill="#63DF75">
              <circle cx="0" cy="0" r="0.9" class="primitive"/>
            </g>
            <g transform="translate(95.13,34.59)" id="img-cb2e7da6-124" stroke="#FFFFFF" fill="#63DF75">
              <circle cx="0" cy="0" r="0.9" class="primitive"/>
            </g>
            <g transform="translate(95.13,34.59)" id="img-cb2e7da6-125" stroke="#FFFFFF" fill="#63DF75">
              <circle cx="0" cy="0" r="0.9" class="primitive"/>
            </g>
            <g transform="translate(95.13,34.49)" id="img-cb2e7da6-126" stroke="#FFFFFF" fill="#63DF75">
              <circle cx="0" cy="0" r="0.9" class="primitive"/>
            </g>
            <g transform="translate(95.13,34.49)" id="img-cb2e7da6-127" stroke="#FFFFFF" fill="#63DF75">
              <circle cx="0" cy="0" r="0.9" class="primitive"/>
            </g>
            <g transform="translate(95.13,21.4)" id="img-cb2e7da6-128" stroke="#FFFFFF" fill="#63DF75">
              <circle cx="0" cy="0" r="0.9" class="primitive"/>
            </g>
            <g transform="translate(85.62,37.3)" id="img-cb2e7da6-129" stroke="#FFFFFF" fill="#C6C6C6">
              <circle cx="0" cy="0" r="0.9" class="primitive"/>
            </g>
            <g transform="translate(85.62,37.2)" id="img-cb2e7da6-130" stroke="#FFFFFF" fill="#C6C6C6">
              <circle cx="0" cy="0" r="0.9" class="primitive"/>
            </g>
            <g transform="translate(85.62,36.83)" id="img-cb2e7da6-131" stroke="#FFFFFF" fill="#C6C6C6">
              <circle cx="0" cy="0" r="0.9" class="primitive"/>
            </g>
            <g transform="translate(85.62,36.64)" id="img-cb2e7da6-132" stroke="#FFFFFF" fill="#C6C6C6">
              <circle cx="0" cy="0" r="0.9" class="primitive"/>
            </g>
            <g transform="translate(85.62,36.27)" id="img-cb2e7da6-133" stroke="#FFFFFF" fill="#C6C6C6">
              <circle cx="0" cy="0" r="0.9" class="primitive"/>
            </g>
            <g transform="translate(85.62,24.86)" id="img-cb2e7da6-134" stroke="#FFFFFF" fill="#C6C6C6">
              <circle cx="0" cy="0" r="0.9" class="primitive"/>
            </g>
            <g transform="translate(85.62,24.67)" id="img-cb2e7da6-135" stroke="#FFFFFF" fill="#C6C6C6">
              <circle cx="0" cy="0" r="0.9" class="primitive"/>
            </g>
            <g transform="translate(85.62,24.58)" id="img-cb2e7da6-136" stroke="#FFFFFF" fill="#C6C6C6">
              <circle cx="0" cy="0" r="0.9" class="primitive"/>
            </g>
            <g transform="translate(85.62,24.49)" id="img-cb2e7da6-137" stroke="#FFFFFF" fill="#C6C6C6">
              <circle cx="0" cy="0" r="0.9" class="primitive"/>
            </g>
            <g transform="translate(85.62,24.49)" id="img-cb2e7da6-138" stroke="#FFFFFF" fill="#C6C6C6">
              <circle cx="0" cy="0" r="0.9" class="primitive"/>
            </g>
            <g transform="translate(85.62,24.3)" id="img-cb2e7da6-139" stroke="#FFFFFF" fill="#C6C6C6">
              <circle cx="0" cy="0" r="0.9" class="primitive"/>
            </g>
            <g transform="translate(85.62,24.11)" id="img-cb2e7da6-140" stroke="#FFFFFF" fill="#C6C6C6">
              <circle cx="0" cy="0" r="0.9" class="primitive"/>
            </g>
            <g transform="translate(85.62,23.93)" id="img-cb2e7da6-141" stroke="#FFFFFF" fill="#C6C6C6">
              <circle cx="0" cy="0" r="0.9" class="primitive"/>
            </g>
            <g transform="translate(85.62,23.83)" id="img-cb2e7da6-142" stroke="#FFFFFF" fill="#C6C6C6">
              <circle cx="0" cy="0" r="0.9" class="primitive"/>
            </g>
            <g transform="translate(85.62,23.74)" id="img-cb2e7da6-143" stroke="#FFFFFF" fill="#C6C6C6">
              <circle cx="0" cy="0" r="0.9" class="primitive"/>
            </g>
            <g transform="translate(85.62,23.65)" id="img-cb2e7da6-144" stroke="#FFFFFF" fill="#C6C6C6">
              <circle cx="0" cy="0" r="0.9" class="primitive"/>
            </g>
            <g transform="translate(85.62,23.55)" id="img-cb2e7da6-145" stroke="#FFFFFF" fill="#C6C6C6">
              <circle cx="0" cy="0" r="0.9" class="primitive"/>
            </g>
            <g transform="translate(85.62,23.55)" id="img-cb2e7da6-146" stroke="#FFFFFF" fill="#C6C6C6">
              <circle cx="0" cy="0" r="0.9" class="primitive"/>
            </g>
            <g transform="translate(85.62,23.46)" id="img-cb2e7da6-147" stroke="#FFFFFF" fill="#C6C6C6">
              <circle cx="0" cy="0" r="0.9" class="primitive"/>
            </g>
            <g transform="translate(85.62,23.27)" id="img-cb2e7da6-148" stroke="#FFFFFF" fill="#C6C6C6">
              <circle cx="0" cy="0" r="0.9" class="primitive"/>
            </g>
            <g transform="translate(85.62,23.27)" id="img-cb2e7da6-149" stroke="#FFFFFF" fill="#C6C6C6">
              <circle cx="0" cy="0" r="0.9" class="primitive"/>
            </g>
            <g transform="translate(85.62,23.27)" id="img-cb2e7da6-150" stroke="#FFFFFF" fill="#C6C6C6">
              <circle cx="0" cy="0" r="0.9" class="primitive"/>
            </g>
            <g transform="translate(85.62,23.27)" id="img-cb2e7da6-151" stroke="#FFFFFF" fill="#C6C6C6">
              <circle cx="0" cy="0" r="0.9" class="primitive"/>
            </g>
            <g transform="translate(85.62,23.08)" id="img-cb2e7da6-152" stroke="#FFFFFF" fill="#C6C6C6">
              <circle cx="0" cy="0" r="0.9" class="primitive"/>
            </g>
            <g transform="translate(85.62,22.99)" id="img-cb2e7da6-153" stroke="#FFFFFF" fill="#C6C6C6">
              <circle cx="0" cy="0" r="0.9" class="primitive"/>
            </g>
            <g transform="translate(85.62,22.8)" id="img-cb2e7da6-154" stroke="#FFFFFF" fill="#C6C6C6">
              <circle cx="0" cy="0" r="0.9" class="primitive"/>
            </g>
            <g transform="translate(85.62,22.15)" id="img-cb2e7da6-155" stroke="#FFFFFF" fill="#C6C6C6">
              <circle cx="0" cy="0" r="0.9" class="primitive"/>
            </g>
            <g transform="translate(85.62,21.87)" id="img-cb2e7da6-156" stroke="#FFFFFF" fill="#C6C6C6">
              <circle cx="0" cy="0" r="0.9" class="primitive"/>
            </g>
            <g transform="translate(85.62,21.12)" id="img-cb2e7da6-157" stroke="#FFFFFF" fill="#C6C6C6">
              <circle cx="0" cy="0" r="0.9" class="primitive"/>
            </g>
            <g transform="translate(85.62,20.84)" id="img-cb2e7da6-158" stroke="#FFFFFF" fill="#C6C6C6">
              <circle cx="0" cy="0" r="0.9" class="primitive"/>
            </g>
            <g transform="translate(85.62,20.09)" id="img-cb2e7da6-159" stroke="#FFFFFF" fill="#C6C6C6">
              <circle cx="0" cy="0" r="0.9" class="primitive"/>
            </g>
            <g transform="translate(85.62,19.81)" id="img-cb2e7da6-160" stroke="#FFFFFF" fill="#C6C6C6">
              <circle cx="0" cy="0" r="0.9" class="primitive"/>
            </g>
            <g transform="translate(85.62,19.81)" id="img-cb2e7da6-161" stroke="#FFFFFF" fill="#C6C6C6">
              <circle cx="0" cy="0" r="0.9" class="primitive"/>
            </g>
            <g transform="translate(85.62,19.72)" id="img-cb2e7da6-162" stroke="#FFFFFF" fill="#C6C6C6">
              <circle cx="0" cy="0" r="0.9" class="primitive"/>
            </g>
            <g transform="translate(85.62,19.44)" id="img-cb2e7da6-163" stroke="#FFFFFF" fill="#C6C6C6">
              <circle cx="0" cy="0" r="0.9" class="primitive"/>
            </g>
            <g transform="translate(28.58,61.23)" id="img-cb2e7da6-164" stroke="#FFFFFF" fill="#00BFFF">
              <circle cx="0" cy="0" r="0.9" class="primitive"/>
            </g>
            <g transform="translate(28.58,61.05)" id="img-cb2e7da6-165" stroke="#FFFFFF" fill="#00BFFF">
              <circle cx="0" cy="0" r="0.9" class="primitive"/>
            </g>
            <g transform="translate(28.58,61.05)" id="img-cb2e7da6-166" stroke="#FFFFFF" fill="#00BFFF">
              <circle cx="0" cy="0" r="0.9" class="primitive"/>
            </g>
            <g transform="translate(28.58,61.05)" id="img-cb2e7da6-167" stroke="#FFFFFF" fill="#00BFFF">
              <circle cx="0" cy="0" r="0.9" class="primitive"/>
            </g>
            <g transform="translate(28.58,61.05)" id="img-cb2e7da6-168" stroke="#FFFFFF" fill="#00BFFF">
              <circle cx="0" cy="0" r="0.9" class="primitive"/>
            </g>
            <g transform="translate(28.58,60.95)" id="img-cb2e7da6-169" stroke="#FFFFFF" fill="#00BFFF">
              <circle cx="0" cy="0" r="0.9" class="primitive"/>
            </g>
            <g transform="translate(28.58,60.77)" id="img-cb2e7da6-170" stroke="#FFFFFF" fill="#00BFFF">
              <circle cx="0" cy="0" r="0.9" class="primitive"/>
            </g>
            <g transform="translate(28.58,60.67)" id="img-cb2e7da6-171" stroke="#FFFFFF" fill="#00BFFF">
              <circle cx="0" cy="0" r="0.9" class="primitive"/>
            </g>
            <g transform="translate(28.58,60.67)" id="img-cb2e7da6-172" stroke="#FFFFFF" fill="#00BFFF">
              <circle cx="0" cy="0" r="0.9" class="primitive"/>
            </g>
            <g transform="translate(28.58,60.58)" id="img-cb2e7da6-173" stroke="#FFFFFF" fill="#00BFFF">
              <circle cx="0" cy="0" r="0.9" class="primitive"/>
            </g>
            <g transform="translate(28.58,60.39)" id="img-cb2e7da6-174" stroke="#FFFFFF" fill="#00BFFF">
              <circle cx="0" cy="0" r="0.9" class="primitive"/>
            </g>
            <g transform="translate(28.58,60.11)" id="img-cb2e7da6-175" stroke="#FFFFFF" fill="#00BFFF">
              <circle cx="0" cy="0" r="0.9" class="primitive"/>
            </g>
            <g transform="translate(133.15,39.54)" id="img-cb2e7da6-176" stroke="#FFFFFF" fill="#FF9A4B">
              <circle cx="0" cy="0" r="0.9" class="primitive"/>
            </g>
            <g transform="translate(133.15,39.54)" id="img-cb2e7da6-177" stroke="#FFFFFF" fill="#FF9A4B">
              <circle cx="0" cy="0" r="0.9" class="primitive"/>
            </g>
            <g transform="translate(133.15,39.54)" id="img-cb2e7da6-178" stroke="#FFFFFF" fill="#FF9A4B">
              <circle cx="0" cy="0" r="0.9" class="primitive"/>
            </g>
            <g transform="translate(133.15,39.26)" id="img-cb2e7da6-179" stroke="#FFFFFF" fill="#FF9A4B">
              <circle cx="0" cy="0" r="0.9" class="primitive"/>
            </g>
            <g transform="translate(133.15,39.17)" id="img-cb2e7da6-180" stroke="#FFFFFF" fill="#FF9A4B">
              <circle cx="0" cy="0" r="0.9" class="primitive"/>
            </g>
            <g transform="translate(133.15,39.07)" id="img-cb2e7da6-181" stroke="#FFFFFF" fill="#FF9A4B">
              <circle cx="0" cy="0" r="0.9" class="primitive"/>
            </g>
            <g transform="translate(133.15,37.02)" id="img-cb2e7da6-182" stroke="#FFFFFF" fill="#FF9A4B">
              <circle cx="0" cy="0" r="0.9" class="primitive"/>
            </g>
          </g>
          <g transform="translate(66.61,25.05)" id="img-cb2e7da6-183" stroke="#BEA9FF">
            <path fill="none" d="M-2.84,0 L2.84,0 " class="primitive"/>
          </g>
          <g transform="translate(76.11,25.23)" id="img-cb2e7da6-184" stroke="#FF6765">
            <path fill="none" d="M-2.84,0 L2.84,0 " class="primitive"/>
          </g>
          <g transform="translate(57.1,34.96)" id="img-cb2e7da6-185" stroke="#00B78D">
            <path fill="none" d="M-2.84,0 L2.84,0 " class="primitive"/>
          </g>
          <g transform="translate(114.14,30.19)" id="img-cb2e7da6-186" stroke="#E870DD">
            <path fill="none" d="M-2.84,0 L2.84,0 " class="primitive"/>
          </g>
          <g transform="translate(47.59,33.93)" id="img-cb2e7da6-187" stroke="#FF6DAE">
            <path fill="none" d="M-2.84,0 L2.84,0 " class="primitive"/>
          </g>
          <g transform="translate(123.65,35.43)" id="img-cb2e7da6-188" stroke="#93A649">
            <path fill="none" d="M-2.84,0 L2.84,0 " class="primitive"/>
          </g>
          <g transform="translate(95.13,21.59)" id="img-cb2e7da6-189" stroke="#63DF75">
            <path fill="none" d="M-2.84,0 L2.84,0 " class="primitive"/>
          </g>
          <g transform="translate(85.62,24.95)" id="img-cb2e7da6-190" stroke="#C6C6C6">
            <path fill="none" d="M-2.84,0 L2.84,0 " class="primitive"/>
          </g>
          <g transform="translate(28.58,45.62)" id="img-cb2e7da6-191" stroke="#00BFFF">
            <path fill="none" d="M-2.84,0 L2.84,0 " class="primitive"/>
          </g>
          <g transform="translate(133.15,39.73)" id="img-cb2e7da6-192" stroke="#FF9A4B">
            <path fill="none" d="M-2.84,0 L2.84,0 " class="primitive"/>
          </g>
          <g transform="translate(104.63,25.14)" id="img-cb2e7da6-193" stroke="#00E6D3">
            <path fill="none" d="M-2.84,0 L2.84,0 " class="primitive"/>
          </g>
          <g transform="translate(38.09,43.66)" id="img-cb2e7da6-194" stroke="#D4CA3A">
            <path fill="none" d="M-2.84,0 L2.84,0 " class="primitive"/>
          </g>
          <g transform="translate(66.61,47.49)" id="img-cb2e7da6-195" stroke="#BEA9FF">
            <path fill="none" d="M-2.84,0 L2.84,0 " class="primitive"/>
          </g>
          <g transform="translate(76.11,39.73)" id="img-cb2e7da6-196" stroke="#FF6765">
            <path fill="none" d="M-2.84,0 L2.84,0 " class="primitive"/>
          </g>
          <g transform="translate(57.1,51.23)" id="img-cb2e7da6-197" stroke="#00B78D">
            <path fill="none" d="M-2.84,0 L2.84,0 " class="primitive"/>
          </g>
          <g transform="translate(114.14,45.53)" id="img-cb2e7da6-198" stroke="#E870DD">
            <path fill="none" d="M-2.84,0 L2.84,0 " class="primitive"/>
          </g>
          <g transform="translate(47.59,60.39)" id="img-cb2e7da6-199" stroke="#FF6DAE">
            <path fill="none" d="M-2.84,0 L2.84,0 " class="primitive"/>
          </g>
          <g transform="translate(123.65,53.29)" id="img-cb2e7da6-200" stroke="#93A649">
            <path fill="none" d="M-2.84,0 L2.84,0 " class="primitive"/>
          </g>
          <g transform="translate(95.13,34.3)" id="img-cb2e7da6-201" stroke="#63DF75">
            <path fill="none" d="M-2.84,0 L2.84,0 " class="primitive"/>
          </g>
          <g transform="translate(85.62,36.08)" id="img-cb2e7da6-202" stroke="#C6C6C6">
            <path fill="none" d="M-2.84,0 L2.84,0 " class="primitive"/>
          </g>
          <g transform="translate(28.58,59.83)" id="img-cb2e7da6-203" stroke="#00BFFF">
            <path fill="none" d="M-2.84,0 L2.84,0 " class="primitive"/>
          </g>
          <g transform="translate(133.15,55.16)" id="img-cb2e7da6-204" stroke="#FF9A4B">
            <path fill="none" d="M-2.84,0 L2.84,0 " class="primitive"/>
          </g>
          <g transform="translate(104.63,39.73)" id="img-cb2e7da6-205" stroke="#00E6D3">
            <path fill="none" d="M-2.84,0 L2.84,0 " class="primitive"/>
          </g>
          <g transform="translate(38.09,61.89)" id="img-cb2e7da6-206" stroke="#D4CA3A">
            <path fill="none" d="M-2.84,0 L2.84,0 " class="primitive"/>
          </g>
          <g transform="translate(66.61,29.85)" id="img-cb2e7da6-207" stroke="#BEA9FF">
            <path fill="none" d="M0,4.8 L0,-4.8 " class="primitive"/>
          </g>
          <g transform="translate(76.11,27.98)" id="img-cb2e7da6-208" stroke="#FF6765">
            <path fill="none" d="M0,2.75 L0,-2.75 " class="primitive"/>
          </g>
          <g transform="translate(57.1,38)" id="img-cb2e7da6-209" stroke="#00B78D">
            <path fill="none" d="M0,3.04 L0,-3.04 " class="primitive"/>
          </g>
          <g transform="translate(114.14,31.87)" id="img-cb2e7da6-210" stroke="#E870DD">
            <path fill="none" d="M0,1.68 L0,-1.68 " class="primitive"/>
          </g>
          <g transform="translate(47.59,38.65)" id="img-cb2e7da6-211" stroke="#FF6DAE">
            <path fill="none" d="M0,4.72 L0,-4.72 " class="primitive"/>
          </g>
          <g transform="translate(123.65,38.93)" id="img-cb2e7da6-212" stroke="#93A649">
            <path fill="none" d="M0,3.51 L0,-3.51 " class="primitive"/>
          </g>
          <g transform="translate(95.13,23.97)" id="img-cb2e7da6-213" stroke="#63DF75">
            <path fill="none" d="M0,2.38 L0,-2.38 " class="primitive"/>
          </g>
          <g transform="translate(85.62,27.06)" id="img-cb2e7da6-214" stroke="#C6C6C6">
            <path fill="none" d="M0,2.1 L0,-2.1 " class="primitive"/>
          </g>
          <g transform="translate(28.58,47.26)" id="img-cb2e7da6-215" stroke="#00BFFF">
            <path fill="none" d="M0,1.64 L0,-1.64 " class="primitive"/>
          </g>
          <g transform="translate(133.15,42.72)" id="img-cb2e7da6-216" stroke="#FF9A4B">
            <path fill="none" d="M0,2.99 L0,-2.99 " class="primitive"/>
          </g>
          <g transform="translate(104.63,28.04)" id="img-cb2e7da6-217" stroke="#00E6D3">
            <path fill="none" d="M0,2.9 L0,-2.9 " class="primitive"/>
          </g>
          <g transform="translate(38.09,46.79)" id="img-cb2e7da6-218" stroke="#D4CA3A">
            <path fill="none" d="M0,3.13 L0,-3.13 " class="primitive"/>
          </g>
          <g transform="translate(66.61,44.7)" id="img-cb2e7da6-219" stroke="#BEA9FF">
            <path fill="none" d="M0,-2.79 L0,2.79 " class="primitive"/>
          </g>
          <g transform="translate(76.11,37.06)" id="img-cb2e7da6-220" stroke="#FF6765">
            <path fill="none" d="M0,-2.66 L0,2.66 " class="primitive"/>
          </g>
          <g transform="translate(57.1,48.19)" id="img-cb2e7da6-221" stroke="#00B78D">
            <path fill="none" d="M0,-3.04 L0,3.04 " class="primitive"/>
          </g>
          <g transform="translate(114.14,42.95)" id="img-cb2e7da6-222" stroke="#E870DD">
            <path fill="none" d="M0,-2.57 L0,2.57 " class="primitive"/>
          </g>
          <g transform="translate(47.59,55.36)" id="img-cb2e7da6-223" stroke="#FF6DAE">
            <path fill="none" d="M0,-5.04 L0,5.04 " class="primitive"/>
          </g>
          <g transform="translate(123.65,50.48)" id="img-cb2e7da6-224" stroke="#93A649">
            <path fill="none" d="M0,-2.81 L0,2.81 " class="primitive"/>
          </g>
          <g transform="translate(95.13,31.92)" id="img-cb2e7da6-225" stroke="#63DF75">
            <path fill="none" d="M0,-2.38 L0,2.38 " class="primitive"/>
          </g>
          <g transform="translate(85.62,34.02)" id="img-cb2e7da6-226" stroke="#C6C6C6">
            <path fill="none" d="M0,-2.06 L0,2.06 " class="primitive"/>
          </g>
          <g transform="translate(28.58,56.61)" id="img-cb2e7da6-227" stroke="#00BFFF">
            <path fill="none" d="M0,-3.23 L0,3.23 " class="primitive"/>
          </g>
          <g transform="translate(133.15,52.46)" id="img-cb2e7da6-228" stroke="#FF9A4B">
            <path fill="none" d="M0,-2.7 L0,2.7 " class="primitive"/>
          </g>
          <g transform="translate(104.63,37.3)" id="img-cb2e7da6-229" stroke="#00E6D3">
            <path fill="none" d="M0,-2.43 L0,2.43 " class="primitive"/>
          </g>
          <g transform="translate(38.09,59.18)" id="img-cb2e7da6-230" stroke="#D4CA3A">
            <path fill="none" d="M0,-2.71 L0,2.71 " class="primitive"/>
          </g>
          <g stroke-width="0.6" id="img-cb2e7da6-231">
            <g transform="translate(66.61,38.7)" id="img-cb2e7da6-232" stroke="#FFFFFF">
              <path fill="none" d="M-2.84,0 L2.84,0 " class="primitive"/>
            </g>
            <g transform="translate(76.11,32.72)" id="img-cb2e7da6-233" stroke="#FFD9CF">
              <path fill="none" d="M-2.84,0 L2.84,0 " class="primitive"/>
            </g>
            <g transform="translate(57.1,43)" id="img-cb2e7da6-234" stroke="#9EFFFC">
              <path fill="none" d="M-2.84,0 L2.84,0 " class="primitive"/>
            </g>
            <g transform="translate(114.14,35.99)" id="img-cb2e7da6-235" stroke="#FFE2FF">
              <path fill="none" d="M-2.84,0 L2.84,0 " class="primitive"/>
            </g>
            <g transform="translate(47.59,46.93)" id="img-cb2e7da6-236" stroke="#FFDFFF">
              <path fill="none" d="M-2.84,0 L2.84,0 " class="primitive"/>
            </g>
            <g transform="translate(123.65,44.78)" id="img-cb2e7da6-237" stroke="#FFFFB2">
              <path fill="none" d="M-2.84,0 L2.84,0 " class="primitive"/>
            </g>
            <g transform="translate(95.13,27.99)" id="img-cb2e7da6-238" stroke="#DAFFE3">
              <path fill="none" d="M-2.84,0 L2.84,0 " class="primitive"/>
            </g>
            <g transform="translate(85.62,30.66)" id="img-cb2e7da6-239" stroke="#FFFFFF">
              <path fill="none" d="M-2.84,0 L2.84,0 " class="primitive"/>
            </g>
            <g transform="translate(28.58,50.2)" id="img-cb2e7da6-240" stroke="#B5FFFF">
              <path fill="none" d="M-2.84,0 L2.84,0 " class="primitive"/>
            </g>
            <g transform="translate(133.15,47.49)" id="img-cb2e7da6-241" stroke="#FFFFB6">
              <path fill="none" d="M-2.84,0 L2.84,0 " class="primitive"/>
            </g>
            <g transform="translate(104.63,33.09)" id="img-cb2e7da6-242" stroke="#B3FFFF">
              <path fill="none" d="M-2.84,0 L2.84,0 " class="primitive"/>
            </g>
            <g transform="translate(38.09,54.13)" id="img-cb2e7da6-243" stroke="#FFFFAB">
              <path fill="none" d="M-2.84,0 L2.84,0 " class="primitive"/>
            </g>
          </g>
        </g>
      </g>
    </g>
  </g>
  <g class="guide ylabels" font-size="2.82" font-family="'PT Sans Caption','Helvetica Neue','Helvetica',sans-serif" fill="#6C606B" id="img-cb2e7da6-244">
    <g transform="translate(18.07,68.72)" id="img-cb2e7da6-245">
      <g class="primitive">
        <text text-anchor="end" dy="0.35em">-20</text>
      </g>
    </g>
    <g transform="translate(18.07,59.36)" id="img-cb2e7da6-246">
      <g class="primitive">
        <text text-anchor="end" dy="0.35em">-10</text>
      </g>
    </g>
    <g transform="translate(18.07,50.01)" id="img-cb2e7da6-247">
      <g class="primitive">
        <text text-anchor="end" dy="0.35em">0</text>
      </g>
    </g>
    <g transform="translate(18.07,40.66)" id="img-cb2e7da6-248">
      <g class="primitive">
        <text text-anchor="end" dy="0.35em">10</text>
      </g>
    </g>
    <g transform="translate(18.07,31.31)" id="img-cb2e7da6-249">
      <g class="primitive">
        <text text-anchor="end" dy="0.35em">20</text>
      </g>
    </g>
    <g transform="translate(18.07,21.96)" id="img-cb2e7da6-250">
      <g class="primitive">
        <text text-anchor="end" dy="0.35em">30</text>
      </g>
    </g>
    <g transform="translate(18.07,12.61)" id="img-cb2e7da6-251">
      <g class="primitive">
        <text text-anchor="end" dy="0.35em">40</text>
      </g>
    </g>
  </g>
  <g font-size="3.88" font-family="'PT Sans','Helvetica Neue','Helvetica',sans-serif" fill="#564A55" stroke="#000000" stroke-opacity="0.000" id="img-cb2e7da6-252">
    <g transform="translate(8.81,38.66)" id="img-cb2e7da6-253">
      <g class="primitive">
        <text text-anchor="middle" dy="0.35em" transform="rotate(-90,0, 2)">Temperature (°C)</text>
      </g>
    </g>
  </g>
  <g font-size="3.88" font-family="'PT Sans','Helvetica Neue','Helvetica',sans-serif" fill="#564A55" stroke="#000000" stroke-opacity="0.000" id="img-cb2e7da6-254">
    <g transform="translate(80.87,5)" id="img-cb2e7da6-255">
      <g class="primitive">
        <text text-anchor="middle" dy="0.6em">Monthly Weather in Toronto (2021)</text>
      </g>
    </g>
  </g>
</g>
<defs>
  <clipPath id="img-cb2e7da6-34">
    <path d="M19.07,10.61 L142.66,10.61 142.66,70.72 19.07,70.72 " />
  </clipPath>
</defs>
</svg>
